<svg width="171" height="22" viewBox="0 0 171 22" fill="none" xmlns="http://www.w3.org/2000/svg">
<g clip-path="url(#clip0_1203_7271)">
<path d="M72.6164 4.49875H41.9412C40.7142 4.49875 39.6545 3.51122 39.6545 2.24938C39.6545 1.04239 40.6585 0 41.9412 0H72.6164V4.49875Z" fill="black"/>
<path d="M122.087 0.0548628C118.796 0.0548628 115.841 1.70075 114.112 4.44389L114.056 4.49875L108.032 15.1421C107.196 16.6234 105.634 17.5012 103.905 17.5012C102.232 17.5012 100.614 16.5686 99.7779 15.1421L93.8102 4.49875L93.7544 4.38903C92.0812 1.64589 89.0695 0 85.8346 0H85.7789C80.6478 0 76.4648 4.16958 76.4648 9.21696V15.581C76.4648 16.6234 75.6282 17.5012 74.5127 17.5012H44.1722C43.726 17.5012 43.2241 17.3915 42.8894 17.1172C42.2759 16.7332 41.9413 16.0748 41.9413 15.3616C41.9413 14.813 42.1644 14.2643 42.5548 13.8803C42.9452 13.4963 43.6145 13.2219 44.1722 13.2219H69.7163V8.77806H44.1722C42.3875 8.77806 40.6028 9.49127 39.32 10.808C38.0372 12.015 37.3679 13.7157 37.3679 15.4165C37.3679 17.1172 38.093 18.818 39.32 20.0249C40.6028 21.2868 42.2759 21.9451 44.0607 21.9451H74.5685C78.138 21.9451 81.0382 19.0923 81.0382 15.581V9.27182C81.0382 6.6384 83.1575 4.49875 85.7789 4.49875C87.4521 4.49875 88.9579 5.3217 89.7945 6.69327L95.7622 17.2818V17.3367C97.4354 20.1895 100.503 22 103.849 22C107.196 22 110.263 20.2444 111.936 17.3367L117.904 6.74813C118.741 5.37656 120.302 4.55362 121.92 4.55362C124.541 4.55362 126.66 6.69327 126.66 9.32668V22.0549H131.178V9.27182C131.345 4.22444 127.218 0.0548628 122.087 0.0548628Z" fill="black"/>
<path d="M161.742 0.0546875H144.564C139.432 0.0546875 135.25 4.1694 135.25 9.21678V21.9998H139.767V9.16192C139.767 6.58337 141.887 4.49858 144.508 4.49858H161.742C164.363 4.49858 166.482 6.58337 166.482 9.16192V21.945H171V9.16192C171 4.1694 166.873 0.0546875 161.742 0.0546875Z" fill="black"/>
<path d="M0 4.49858H15.6164V21.9998H20.1898V4.49858H35.862V0.0546875H0V4.49858Z" fill="black"/>
</g>
<defs>
<clipPath id="clip0_1203_7271">
<rect width="171" height="22" fill="white"/>
</clipPath>
</defs>
</svg>
