<svg width="470" height="189" fill="none" xmlns="http://www.w3.org/2000/svg"><path d="M145.891 138.082h-37.704v49.929h-8.186v-49.929H.283v-5.932L96.28 14.989h9.675L11.198 130.667H100V86.669h8.186v43.998h37.704v7.415zM231.083 189c-13.065 0-24.723-3.543-34.976-10.629-10.088-7.25-17.943-17.467-23.565-30.649-5.623-13.348-8.434-28.755-8.434-46.222 0-17.467 2.811-32.792 8.434-45.975 5.622-13.347 13.477-23.564 23.565-30.65C206.36 17.626 218.018 14 231.083 14c13.229 0 24.888 3.625 34.975 10.876 10.088 7.085 17.943 17.302 23.566 30.65 5.622 13.182 8.434 28.507 8.434 45.974 0 17.467-2.812 32.874-8.434 46.222-5.623 13.182-13.478 23.399-23.566 30.649C255.971 185.457 244.312 189 231.083 189zm0-7.662c11.576 0 21.829-3.214 30.759-9.64 8.929-6.427 15.792-15.655 20.588-27.684 4.961-12.029 7.442-26.2 7.442-42.514 0-16.314-2.481-30.485-7.442-42.514-4.796-12.03-11.659-21.257-20.588-27.684-8.93-6.426-19.183-9.64-30.759-9.64s-21.829 3.214-30.759 9.64c-8.765 6.427-15.628 15.655-20.589 27.684-4.795 12.03-7.193 26.2-7.193 42.514 0 16.314 2.398 30.485 7.193 42.514 4.961 12.029 11.824 21.257 20.589 27.684 8.93 6.426 19.183 9.64 30.759 9.64zm238.2-43.256h-37.704v49.929h-8.186v-49.929h-99.718v-5.932l95.997-117.161h9.674l-94.757 115.678h88.804V86.669h8.186v43.998h37.704v7.415z" fill="#393939"/><g clip-path="url(#clip0_1367_13385)"><path d="M248.583 89.5c-3.2-3.8-.3-9.3-3.9-13.2.5 6.4-1.2 12.4-2.1 19 6.4.8 12.9-.2 19.7.5-2.2 6.1-2.9 13.3-3.7 19.2-3.6 2.2-12.1 2.1-16.3-.4-.5-2.7-1.1-5.5-1.9-9.1-2.3 6.3-2.5 12.1-1.9 17.8 1.1 11.2-3.5 23.7-4.4 34.7 1.4 1.7 2 4.7 1.6 7.3-6 0-11.4.1-16.7 0-.7-1.2-.9-1.9-.5-2.5 4-7.2 2.8-10 1.4-14.7-2.3-7.4-3.4-14.9-2.7-22.7.6-7.3-.7-14.5-2.3-21.6-1.5-7.1-3-14.2-4.4-21.3-.4-2.1-.3-4.2.1-6.4-3.6 3.3-3.5 8.3-5.6 12-.3 1.3 1.6 1.7.8 3.3-.5.9-1.1 2.5-1.1 2.5l6.1 58.4s3.3 6.4 6.1 9.1c.7 1.4-.8 2.4-.5 3.7 1.1 1.8 2.2 3.6 3.5 5.6-.5 2.3-1.4 4.5-3 6.7-2.8-.6-5-2.8-7.9-2.8-2.7 0-5-2.7-8.1-1.3-1-.8-2-1.7-2.8-2.5-1.3-.3-2.1 1.4-2.9.8-1.7-.8-.7-1.7-1.2-2.7-.9-1-2.2 1.3-3.3 0-1-1.1-.3-2.1.3-3.5 5.6-.5 9.4-5.3 15.2-6.5.4-1.8.2-4.2 2.8-4.2-2.6-21.1-4.1-41.8-6.8-61.8-1.6-.9-1.4.6-2.6.2-3.1-4.1.7-7.6 1.7-10.9-1-9.6-1.9-18.7-2.9-28.2 2.8.6 2.4.8 2.4.8l2.3 24.4s2-4.7 1.7-6.3c-1-4.6-.4-9 .8-13.2 2.1-7 3.2-14.1 4.6-21.2 1.1-5.7 2.6-10.1 8.1-12.8.4-.2 2.1-.6 2.6-1-1.8-5.7-2.3-11.9.7-17.2.2-.3.3-.6.4-.9 1.8-6.5 2-6.6 8.6-6.5.3 0 .6.1 1.2.2 2.1 1.4 3.4 3.5 3.9 6.3s2.7 4.9 3.2 7.7c.3 1.5.8 3 .3 4.4-1.4 3.8.2 6.6 3 8.5 3 2 4.2 4.9 5 8.1 2.5 9.4 3.9 19 5 28.7.3 2.3 1 4.5.9 6.9-.1 1.3.2 2.7-.6 3.9-1.9 3-1.7 5.9-.1 8.9 1.2 2.2.8 4.2-1.1 5.8-.6.4-1.5.4-2.7 0zm-20.8 51.2c0-7.4 2.7-14.8 0-22.7-1.5 7.8.1 15.3 0 22.7z" fill="#393939"/><path d="M239.684 94.1c2.4-4.3 6.9-6.9 11.3-6.5 4.4.4 8.6 3.8 10.3 8.5" stroke="#393939" stroke-miterlimit="10"/><path d="M223.983 10.5c-.5.2-1.1.5-1.3 1-.2.5 0 1 .1 1.5.2 1.3.5 2.9.4 4.2-.1 1.2 1.9 3.4 2.9 3.9-1.1-.5-.9-1.5-.6-2.5.5-1.7.8-2.1-.2-2.3-.1 0 .8-2.5.8-2.7.1-.4.3-1.1.2-1.5-.2-.7-.8 0-1.1.2-.5.4-1 .5-1.4-.1 0-.1-.5-.7-.5-.7.2-.2.6-1 .7-1z" fill="#CEDCE9"/></g><defs><clipPath id="clip0_1367_13385"><path fill="#fff" transform="translate(190.283)" d="M0 0h72.1v177.2H0z"/></clipPath></defs></svg>