<svg width="33" height="32" fill="none" xmlns="http://www.w3.org/2000/svg"><g clip-path="url(#clip0_1349_11611)"><path d="M9.003 6.667c.08 1.186.28 2.346.6 3.453l-1.6 1.6A19.768 19.768 0 016.99 6.667h2.013zM22.15 22.693c1.133.32 2.293.52 3.466.6v1.987a20.57 20.57 0 01-5.066-1l1.6-1.587zM10.283 4H5.617c-.734 0-1.334.6-1.334 1.333C4.283 17.853 14.43 28 26.95 28c.733 0 1.333-.6 1.333-1.333v-4.654c0-.733-.6-1.333-1.333-1.333a15.21 15.21 0 01-4.76-.76 1.12 1.12 0 00-.414-.067c-.346 0-.68.134-.946.387l-2.933 2.933a20.198 20.198 0 01-8.787-8.786l2.933-2.934a1.34 1.34 0 00.334-1.36 15.148 15.148 0 01-.76-4.76c0-.733-.6-1.333-1.334-1.333z" fill="#393939"/></g><defs><clipPath id="clip0_1349_11611"><path fill="#fff" transform="translate(.283)" d="M0 0h32v32H0z"/></clipPath></defs></svg>