<svg width="25" height="25" fill="none" xmlns="http://www.w3.org/2000/svg"><path fill-rule="evenodd" clip-rule="evenodd" d="M11.309 2.239h2.111c1.837 0 3.291 0 4.43.153 1.171.158 2.12.49 2.868 1.237.747.748 1.08 1.696 1.237 2.868.153 1.139.153 2.593.153 4.43v4.11c0 1.836 0 3.291-.153 4.43-.158 1.171-.49 2.12-1.237 2.867-.748.748-1.697 1.08-2.868 1.238-1.139.153-2.593.152-4.43.152h-2.11c-1.837 0-3.291 0-4.43-.152-1.171-.158-2.12-.49-2.868-1.238-.747-.748-1.08-1.696-1.237-2.868-.153-1.138-.153-2.593-.153-4.43v-4.11c0-1.836 0-3.29.153-4.429.158-1.172.49-2.12 1.237-2.868.748-.748 1.697-1.08 2.868-1.237 1.139-.153 2.593-.153 4.43-.153zm-4.23 1.639c-1.005.135-1.585.388-2.008.811-.423.423-.676 1.002-.811 2.008-.138 1.027-.14 2.38-.14 4.286v3.997c0 1.906.002 3.26.14 4.287.135 1.005.388 1.584.811 2.007.423.423 1.003.677 2.008.812 1.027.138 2.38.14 4.286.14h1.999c1.905 0 3.26-.002 4.286-.14 1.006-.135 1.585-.389 2.008-.812.423-.423.676-1.002.811-2.007.138-1.027.14-2.381.14-4.287v-3.997c0-1.905-.002-3.26-.14-4.286-.135-1.006-.388-1.585-.811-2.008-.423-.423-1.003-.676-2.008-.811-1.027-.138-2.38-.14-4.286-.14h-1.999c-1.905 0-3.26.002-4.286.14zm.539 5.106a.75.75 0 01.75-.749h7.994a.75.75 0 110 1.499H8.367a.75.75 0 01-.75-.75zm0 3.998a.75.75 0 01.75-.75h7.994a.75.75 0 110 1.5H8.367a.75.75 0 01-.75-.75zm0 3.997a.75.75 0 01.75-.75h4.996a.75.75 0 110 1.5H8.367a.75.75 0 01-.75-.75z" fill="#393939"/></svg>