<svg width="25" height="25" fill="none" xmlns="http://www.w3.org/2000/svg"><path fill-rule="evenodd" clip-rule="evenodd" d="M9.412 4.17a9.247 9.247 0 00-6.422 8.062h4.478a24.03 24.03 0 01.303-3.197c.208-1.254.515-2.41.91-3.398a9.29 9.29 0 01.731-1.467zm2.792-1.931a10.743 10.743 0 100 21.485 10.743 10.743 0 000-21.485zm0 1.499c-.261 0-.599.126-.99.532-.396.409-.792 1.05-1.14 1.924-.348.868-.63 1.915-.824 3.086a22.45 22.45 0 00-.283 2.952h6.473a22.423 22.423 0 00-.283-2.952c-.194-1.17-.476-2.218-.823-3.086-.35-.874-.745-1.515-1.14-1.924-.392-.406-.73-.532-.99-.532zm4.736 8.494a23.944 23.944 0 00-.304-3.197c-.208-1.254-.515-2.41-.91-3.398a9.3 9.3 0 00-.73-1.467 9.255 9.255 0 013.744 2.275 9.243 9.243 0 012.677 5.787H16.94zm-1.5 1.5H8.967c.032 1.016.127 2.012.283 2.951.194 1.171.476 2.219.823 3.087.35.873.745 1.515 1.14 1.924.392.406.73.532.99.532.262 0 .6-.126.991-.532.395-.41.79-1.05 1.14-1.924.348-.868.63-1.916.823-3.087.156-.939.251-1.935.283-2.952zm-.445 8.062c.272-.434.515-.928.731-1.468.395-.988.702-2.143.91-3.398.17-1.022.272-2.102.304-3.197h4.477a9.24 9.24 0 01-6.422 8.063zm-5.583 0a9.29 9.29 0 01-.73-1.468c-.396-.988-.703-2.143-.91-3.398a23.948 23.948 0 01-.304-3.197H2.99a9.243 9.243 0 006.422 8.063z" fill="#393939"/></svg>