<svg width="45" height="54" fill="none" xmlns="http://www.w3.org/2000/svg"><g clip-path="url(#clip0_1295_8949)"><path d="M2 0C1.128.09.402.918.402 1.8v42c0 .942.85 1.8 1.784 1.8h14.978c2.26 4.956 7.224 8.4 12.968 8.4 7.86 0 14.27-6.468 14.27-14.4 0-6.684-4.566-12.324-10.702-13.932V11.4c0-.474-.19-.942-.524-1.272l-9.507-9.6A1.798 1.798 0 0022.4 0H2zm1.97 3.6h16.649v7.8c0 .942.85 1.8 1.783 1.8h7.73v12c-7.86 0-14.27 6.468-14.27 14.4 0 .816.071 1.62.202 2.4H3.969V3.6zm20.216 2.532L27.622 9.6h-3.437V6.132zM30.131 28.8c5.934 0 10.703 4.812 10.703 10.8S36.065 50.4 30.13 50.4c-5.934 0-10.703-4.812-10.703-10.8s4.769-10.8 10.703-10.8zm-.018 3.564c-.94.012-1.784.888-1.766 1.836v6.45l-.523-.528c-.375-.39-.933-.6-1.469-.546a1.825 1.825 0 00-1.492 1.2 1.865 1.865 0 00.434 1.878l3.568 3.6c.66.666 1.867.666 2.527 0l3.567-3.6c.726-.648.761-1.932.072-2.622-.69-.69-1.963-.648-2.599.096l-.523.528v-6.45c.018-.96-.85-1.848-1.802-1.836l.006-.006z" fill="#C59887"/></g><defs><clipPath id="clip0_1295_8949"><path fill="#fff" transform="translate(.401)" d="M0 0h44v54H0z"/></clipPath></defs></svg>