<svg width="37" height="36" fill="none" xmlns="http://www.w3.org/2000/svg"><path fill-rule="evenodd" clip-rule="evenodd" d="M17.403 7.73h1.087c3.236 0 3.62.012 4.898.07 1.182.054 1.823.252 2.25.418.566.22.97.482 1.393.906.425.424.687.829.907 1.394.166.427.364 1.068.418 2.25.058 1.278.07 1.662.07 4.896 0 3.235-.012 3.62-.07 4.897-.054 1.182-.252 1.823-.418 2.25-.22.566-.482.968-.907 1.392a3.748 3.748 0 01-1.393.907c-.426.166-1.068.364-2.25.418-1.278.058-1.662.07-4.898.07-3.237 0-3.62-.012-4.898-.07-1.182-.055-1.823-.252-2.25-.418a3.755 3.755 0 01-1.395-.907 3.757 3.757 0 01-.907-1.393c-.166-.427-.363-1.068-.417-2.25-.058-1.278-.07-1.662-.07-4.898 0-3.237.012-3.62.07-4.897.054-1.182.251-1.823.417-2.25.22-.566.483-.97.907-1.394a3.762 3.762 0 011.394-.907c.428-.167 1.07-.364 2.251-.418 1.118-.05 1.551-.066 3.81-.068v.003zm7.557 2.013a1.454 1.454 0 100 2.91 1.454 1.454 0 000-2.91zm-12.695 7.924a6.225 6.225 0 1112.45 0 6.225 6.225 0 01-12.45 0z" fill="#000"/><path d="M18.49 13.627a4.04 4.04 0 110 8.08 4.04 4.04 0 010-8.08z" fill="#000"/></svg>