<svg width="101" height="63" fill="none" xmlns="http://www.w3.org/2000/svg"><g clip-path="url(#clip0_1279_8429)"><path d="M53 43a3.343 3.343 0 01-3.333-3.333c0-1.834 1.5-3.334 3.333-3.334 1.833 0 3.333 1.5 3.333 3.334C56.333 41.5 54.833 43 53 43zm10-3c0-6.05-4.417-10.333-10-10.333S43 33.95 43 40c0 3.9 3.25 9.067 10 15.233C59.75 49.067 63 43.9 63 40zM53 26.334c7 0 13.333 5.366 13.333 13.666 0 5.533-4.45 12.084-13.333 19.667C44.117 52.083 39.667 45.533 39.667 40 39.667 31.7 46 26.334 53 26.334z" fill="#C59887"/></g><g clip-path="url(#clip1_1279_8429)" fill="#393939"><path d="M42.89 2.454H24.772c-.724 0-1.35-.539-1.35-1.227 0-.658.593-1.227 1.35-1.227H42.89v2.454z"/><path d="M72.11.03c-1.944 0-3.69.898-4.71 2.394l-.034.03-3.557 5.805c-.495.808-1.417 1.287-2.438 1.287-.988 0-1.944-.509-2.438-1.287l-3.525-5.805-.033-.06C54.387.898 52.608 0 50.698 0h-.033c-3.03 0-5.502 2.274-5.502 5.027V8.5c0 .568-.494 1.047-1.153 1.047H26.09c-.264 0-.56-.06-.758-.21a1.092 1.092 0 01-.197-1.765c.23-.21.626-.359.955-.359h15.087V4.788H26.09c-1.054 0-2.108.39-2.866 1.107a3.332 3.332 0 00-1.153 2.514c0 .928.428 1.855 1.153 2.514.758.688 1.746 1.047 2.8 1.047h18.02c2.108 0 3.82-1.556 3.82-3.471V5.057c0-1.436 1.252-2.603 2.8-2.603.989 0 1.878.449 2.372 1.197l3.525 5.775v.03c.989 1.556 2.8 2.544 4.777 2.544 1.976 0 3.788-.958 4.777-2.544l3.524-5.775c.494-.748 1.417-1.197 2.372-1.197 1.548 0 2.8 1.167 2.8 2.603v6.943h2.668V5.057C77.58 2.304 75.142.03 72.11.03zm23.422 0H85.385c-3.03 0-5.5 2.244-5.5 4.997V12h2.667V4.997c0-1.406 1.252-2.543 2.8-2.543h10.18c1.548 0 2.8 1.137 2.8 2.543v6.973H101V4.997C101 2.274 98.562.03 95.532.03zM0 2.454h9.224V12h2.701V2.454h9.257V.03H0v2.424z"/></g><defs><clipPath id="clip0_1279_8429"><path fill="#fff" transform="translate(33 23)" d="M0 0h40v40H0z"/></clipPath><clipPath id="clip1_1279_8429"><path fill="#fff" d="M0 0h101v12H0z"/></clipPath></defs></svg>