<svg width="171" height="22" fill="none" xmlns="http://www.w3.org/2000/svg"><g clip-path="url(#clip0_1203_7271)" fill="#000"><path d="M72.616 4.499H41.941c-1.227 0-2.287-.988-2.287-2.25C39.654 1.042 40.658 0 41.941 0h30.675v4.499z"/><path d="M122.087.055c-3.291 0-6.246 1.646-7.975 4.389l-.056.055-6.024 10.643c-.836 1.481-2.398 2.36-4.127 2.36-1.673 0-3.291-.933-4.127-2.36L93.81 4.5l-.056-.11C92.081 1.646 89.07 0 85.834 0h-.055c-5.131 0-9.314 4.17-9.314 9.217v6.364c0 1.042-.837 1.92-1.952 1.92h-30.34c-.447 0-.949-.11-1.284-.384-.613-.384-.948-1.042-.948-1.755a2.1 2.1 0 01.614-1.482c.39-.384 1.06-.658 1.617-.658h25.544V8.778H44.172c-1.784 0-3.57.713-4.852 2.03-1.283 1.207-1.952 2.908-1.952 4.608 0 1.701.725 3.402 1.952 4.609 1.283 1.262 2.956 1.92 4.74 1.92h30.508c3.57 0 6.47-2.853 6.47-6.364v-6.31c0-2.633 2.12-4.772 4.74-4.772 1.674 0 3.18.823 4.016 2.194l5.968 10.589v.055C97.435 20.189 100.503 22 103.85 22a9.287 9.287 0 008.087-4.663l5.968-10.589c.837-1.371 2.398-2.194 4.016-2.194 2.621 0 4.74 2.14 4.74 4.773v12.728h4.518V9.272c.167-5.048-3.96-9.217-9.091-9.217zm39.655 0h-17.178c-5.132 0-9.314 4.114-9.314 9.162V22h4.517V9.162c0-2.579 2.12-4.663 4.741-4.663h17.234c2.621 0 4.74 2.084 4.74 4.663v12.783H171V9.162c0-4.993-4.127-9.107-9.258-9.107zM0 4.499h15.616v17.5h4.574V4.5h15.672V.055H0v4.444z"/></g><defs><clipPath id="clip0_1203_7271"><path fill="#fff" d="M0 0h171v22H0z"/></clipPath></defs></svg>