<svg width="25" height="24" fill="none" xmlns="http://www.w3.org/2000/svg"><path fill-rule="evenodd" clip-rule="evenodd" d="M18.198 3.357a2.338 2.338 0 012.387-.291c.71.311 1.328.683 1.78 1.124.452.442.786 1.005.786 1.67v12.716c0 .793-.47 1.436-1.064 1.916-.6.486-1.422.89-2.372 1.215-1.906.653-4.492 1.043-7.314 1.043-2.82 0-5.407-.39-7.314-1.043-.95-.325-1.772-.73-2.372-1.215-.593-.48-1.064-1.123-1.064-1.916V5.86c0-.665.334-1.228.788-1.67.45-.44 1.068-.813 1.779-1.124a2.338 2.338 0 012.386.29 2.694 2.694 0 011.047 2.146V8.11c1.395.268 3.015.424 4.75.424 1.735 0 3.356-.156 4.75-.424V5.502c0-.877.413-1.663 1.047-2.145zm.453 4.396c.884-.256 1.602-.558 2.12-.881.723-.45.88-.816.88-1.012 0-.13-.06-.33-.335-.597-.275-.27-.716-.553-1.333-.823a.84.84 0 00-.877.11 1.198 1.198 0 00-.455.952v2.251zm3 .337a5.844 5.844 0 01-.087.055c-.884.55-2.098.99-3.497 1.306-1.64.37-3.586.583-5.666.583-2.08 0-4.026-.213-5.665-.583-1.4-.316-2.614-.756-3.497-1.306a5.894 5.894 0 01-.088-.055v9.753l3.043-2.848 1.372-1.149a2.59 2.59 0 013.432.111l3.32 3.177a.851.851 0 001.05.084l.23-.155a3.155 3.155 0 013.797.22l2.044 1.76c.169-.202.212-.36.212-.467V8.09zm-1.495 11.828l-1.74-1.498a1.655 1.655 0 00-1.981-.112l-.23.155a2.351 2.351 0 01-2.923-.245L9.961 15.04a1.09 1.09 0 00-1.432-.044l-1.34 1.121-3.475 3.252c.414.319 1.037.636 1.86.918 1.712.586 4.126.962 6.827.962 2.702 0 5.116-.376 6.829-.962.344-.118.653-.242.926-.37zM3.151 5.86c0 .196.158.562.88 1.012.52.323 1.236.625 2.12.881v-2.25c0-.406-.19-.751-.455-.952a.84.84 0 00-.877-.111c-.616.27-1.057.554-1.333.823-.273.267-.335.467-.335.597zm15.25 6.39a.75.75 0 100 1.5.75.75 0 000-1.5zm-2.25.75a2.25 2.25 0 114.5 0 2.25 2.25 0 01-4.5 0z" fill="#393939"/></svg>