<svg width="1394" height="482" fill="none" xmlns="http://www.w3.org/2000/svg"><g opacity=".6"><mask id="mask0_1201_6080" style="mask-type:alpha" maskUnits="userSpaceOnUse" x="-69" y="0" width="1463" height="500"><path fill="url(#paint0_linear_1201_6080)" d="M-69 .558h1463v498.547H-69z"/></mask><g mask="url(#mask0_1201_6080)" stroke="#fff" stroke-miterlimit="10"><path d="M728.958 300.291l-91.721 17.003"/><path d="M454.33 310.135l20.562 4.833m.715-8.949l21.455 4.832m0-8.949l22.171 4.832m-.894-8.77l26.282 5.191m-5.006-9.307l26.283 5.19m-4.828-9.307l26.104 5.012m-4.827-8.949l26.283 4.653m-4.828-8.77l26.104 4.475m-4.827-8.591l26.282 4.295m-4.827-8.412l26.104 4.117m-4.828-8.055l26.104 3.759m-4.648-7.875l26.104 3.58m-4.828-7.697l26.104 3.401m-4.648-7.517l26.103 3.221m-4.827-7.159l26.104 2.864m-4.649-6.98l26.104 2.684m-4.827-6.801l26.104 2.506" opacity=".3"/><path d="M128.925 259.305V135.271l51.135-4.296-54.532 4.117v123.855m164.669-106.673v131.014M180.06 138.85l-35.222 2.685m-11.98 106.852v11.455"/><path d="M665.486 125.248L289.84 149.052l-160.915-8.412v3.759l5.543.358 8.939 13.96-14.482-.895v3.759l14.482.895-13.23 29.89-1.252-.179v3.758h.715l14.125 32.396-.179.716-14.661-1.969v3.759l14.125 1.968-10.549 11.455-3.576-.537v3.759l160.736 24.878 126.944-19.151v-3.4l-5.9.894 5.9-5.906v-4.474l-10.728 10.738-14.303-11.812 25.031-3.401v-3.043l-25.925 3.401 12.694-32.217 13.231 18.793v-7.875l-10.728-14.497 10.728-1.074v-3.401l-9.834 1.074 9.834-16.824v-8.233l-12.873 20.762-12.516-28.279 25.389-1.969v-3.401l-23.601 1.79 15.197-15.571 8.404 7.696v-4.833l-3.755-3.221 91.364-6.086-14.125 13.245-4.112-3.759v8.949-.179l13.231 29.532-13.231 1.253v4.296l13.588-1.432-11.085 31.322-2.324.179v4.295l3.576-.358 11.085 11.097-14.483 1.969v4.295l179.51-26.131v-3.043l-19.846 2.685 9.833-12.35 10.013 9.128v-4.295l-6.258-5.37 6.258-.715v-3.043l-7.688.895-.179-.358 7.867-28.1v-11.992l-5.543-17.719 5.543-.358v-3.043l-5.185.358 5.185-6.264v-3.222l-7.688 8.77-9.298-10.56 16.986-1.073v-2.506h-.358zm-338.099 75.53l-13.41-30.427 33.434-2.506-20.024 32.933zm23.064-30.606l13.052 30.964-.179.179-32.719 3.4 19.846-34.543zm-26.104 35.259l-31.11 3.222 17.7-34.722 13.41 31.5zm-34.15.179l-12.515-34.185 11.979.716 19.31-1.432-18.774 34.901zm-2.324 3.043l-28.965-3.043 15.734-32.574 13.231 35.617zm-30.037-5.727l-9.119-33.47 24.674 1.611-15.555 31.859zm-2.504 2.505l-24.316-2.505 14.662-32.038 9.654 34.543zm-25.388-5.369l-8.582-32.396 22.706 1.432-14.124 30.964zm-2.146 2.506l-22.707-2.327 13.589-31.322 9.118 33.649zm-23.779-5.012l-8.225-31.501 21.455 1.432-13.23 30.069zm-2.146 2.327l-21.813-2.148 13.052-30.069 8.761 32.217zm-22.528-5.37l-7.867-30.068 20.561 1.431-12.694 28.637zm-1.967 2.864l-21.276-2.148 12.694-29.174 8.582 31.322zm-22.349-4.474l-7.867-30.248 20.561 1.432-12.694 28.816zm12.337 39.733l-20.025-2.684-1.073-2.685 7.331-26.847 13.767 32.216zm-11.622-33.827l20.562 2.148-7.689 27.921-12.873-30.069zm21.813 4.296l14.304 33.111-21.456-2.864-.536-1.432 7.688-28.815zm2.324-1.79l21.813 2.326-8.403 28.816-13.41-31.142zm23.065 4.653l15.019 32.575-.358 1.253-22.707-3.043-.536-1.074 8.582-29.711zm2.324-1.969l21.992 2.327-8.225 28.1-13.767-30.427zm23.78 3.759l16.449 35.796-23.601-3.221-1.252-2.864 8.404-29.711zm3.039-1.074l23.78 2.506-8.94 30.248-14.84-32.754zm25.21 4.833l16.449 35.796-24.852-3.401-.715-1.432 9.118-30.963zm2.682-1.969l27.534 2.864-11.442 32.932-16.092-35.796zm30.038 3.222l17.521 34.364-17.7 2.327-12.337-1.611 12.516-35.08zm4.469-.537l30.574-3.222-14.661 34.364-15.913-31.142zm33.256.537l20.74 28.815v.179l-35.759 4.654 15.019-33.648zm2.682-4.296l33.613-3.58-13.588 32.038-20.025-28.458zm36.116 0l18.953 28.458-32.183 4.295-.358-.536 13.588-32.217zm0-12.171l-12.694-28.995 31.825-2.505-19.131 31.5zm-11.085-32.753l15.913-15.035 13.588 12.887-29.501 2.148zm12.516-15.93l-16.986 15.572-14.661-13.424 31.647-2.148zm-21.456 16.646l-30.752 2.326 16.628-15.75 14.124 13.424zm-17.879-13.961l-17.522 15.929-15.018-13.781 32.54-2.148zm-38.441 1.969l16.449 14.855-16.806 1.253-11.801-.716 12.158-15.392zm-3.039.537l-11.979 14.497-11.622-15.75 23.601 1.253zm-16.27 14.318l-22.886-1.431 11.979-13.782 10.907 15.213zM258.014 151.2l-11.621 13.066-10.37-14.14 21.991 1.074zm-14.839 14.14l-21.813-1.432 10.727-13.961 11.086 15.393zm-13.41-15.572l-10.37 13.066-10.37-14.14 20.74 1.074zm-13.41 13.782l-20.74-1.432 10.37-13.424 10.37 14.856zm-12.694-15.214l-10.012 12.529-9.834-13.603 19.846 1.074zm-12.873 13.603l-20.025-1.253 9.655-13.424 10.37 14.677zm-12.516-14.856l-9.297 12.35-9.476-13.423 18.773 1.073zm-11.8 13.245l-18.952-1.253 9.118-13.065 9.834 14.318zm-29.144-15.392l17.165.895-8.761 11.991-8.404-12.886zm7.331 19.151l8.224 30.605-20.74-2.147 12.516-28.458zm-11.8 32.395l19.131 1.969-7.152 26.131-11.979-28.1zm2.324 48.504l9.834-10.56 9.297 13.424-19.131-2.864zm12.873-11.097l19.31 2.685-10.191 10.918-9.119-13.603zm11.264 14.677l9.655-10.202 8.94 13.065-18.595-2.863zm11.979-11.455l20.74 2.864-10.906 11.812-9.834-14.676zm12.158 15.213l10.549-11.097 9.834 14.319-20.383-3.222zm13.589-11.633l20.919 2.863-11.086 11.813-9.833-14.676zm11.979 15.571l10.906-11.634 10.191 14.856-21.097-3.222zm24.673 3.759l-10.727-15.93 21.991 3.043-10.906 12.887h-.358zm3.398.536l10.37-11.991 10.37 15.213-20.74-3.222zm24.315 3.759l-11.085-16.287 22.35 3.042-11.265 13.245zm3.04.537l10.906-12.708 11.086 16.109-21.992-3.401zm25.568 3.938l-11.264-16.825 10.906 1.432 17.522-2.327-17.164 17.72zm5.363-.895l15.734-16.825 16.807 11.992-32.541 4.833zm20.025-17.898l31.647-4.296-14.125 16.466-17.522-12.17zm21.992 11.812l13.41-16.108 15.733 11.813-29.143 4.295zm17.879-17.182l29.501-3.937-13.409 15.75-16.092-11.813zm46.308 7.696l-25.925 3.759 12.516-15.392 13.409 11.633zm-13.588-18.793l-18.952-29.174 31.825-3.4-12.873 32.574zm12.873-36.154l-31.468 3.401 18.952-33.112 12.516 29.711zm-11.8-37.228l-13.946-12.887 28.964-1.968-15.018 14.855zm255.139-30.606l-11.086 12.35-9.833-11.097 20.919-1.253zm-30.932 45.998l-21.813 2.148 14.304-28.458 7.509 26.31zm-4.112-27.921l21.098-1.61-14.125 25.236-6.973-23.626zm-19.489 26.132l-7.151-24.163 20.919-1.611-13.768 25.774zm-3.039 4.295l-22.349 2.148 15.018-27.563 7.331 25.415zm-24.316-1.611l-8.225-24.699 23.601-1.79-15.376 26.489zm-3.397 4.296l-23.422 2.327 14.84-28.995 8.582 26.668zm-25.746-1.253l-9.298-25.236 23.959-1.969-14.661 27.205zm-3.398 4.117l-24.316 2.326 15.019-28.637 9.297 26.311zm.358 4.116l-9.655 27.563-14.84-24.878 24.495-2.685zm1.967 3.401l14.661 24.162-23.422 2.864 8.761-27.026zm3.039-3.938l23.601-2.506-9.118 26.311-14.483-23.805zm25.747 0l14.482 24.521-23.064 2.863 8.582-27.384zm3.397-3.042l21.991-2.327-8.403 25.415-13.588-23.088zm24.316.358l13.588 23.983-21.813 2.685 8.225-26.668zm3.039-3.222l21.277-2.148-8.225 24.878-13.052-22.73zm23.243.537l13.231 23.446-21.276 2.506 8.045-25.952zm2.861-3.401l20.74-2.148-7.867 24.879-12.873-22.731zm0-3.4l14.304-27.027 7.509 25.058-21.813 1.969zm17.164-29.532l19.846-1.611-12.694 24.699-7.152-23.088zm-5.006-2.864l-20.561 1.432 10.906-12.529 9.655 11.097zm-12.158-11.455l-11.264 12.529-9.834-11.097 21.098-1.432zm-14.125 13.424l-20.74 1.432 11.085-12.529 9.655 11.097zm-12.158-11.634l-11.621 12.708-10.191-11.276 21.812-1.432zm-14.482 13.603l-22.528 1.61 12.158-13.244 10.37 11.634zm-13.409-11.813l-12.337 13.065-10.907-11.454 23.244-1.611zm-15.734 13.781l-22.707 1.611 12.515-12.707 10.192 11.096zm-12.874-11.812l-13.23 13.065-11.622-11.455 24.852-1.61zm-27.891 2.505l11.264 11.455-24.138 1.79 12.874-13.245zm-14.662 17.54l26.283-2.147-16.091 28.637-10.192-26.49zm9.477 36.871l15.197 25.057-24.495 3.043 9.298-28.1zm14.124 29.531l-11.264 13.245-10.727-10.381 21.991-2.864zm-7.867 13.424l11.443-13.782.537-.179 10.727 10.739-22.707 3.222zm16.628-14.676l21.634-2.864-11.085 12.886-10.549-10.022zm13.767 10.38l10.907-13.423h.179l10.548 10.56-21.634 2.863zm15.377-14.139l21.455-2.685-11.085 12.887-10.37-10.202zm13.588 10.023l10.549-13.066 10.191 10.202-20.74 2.864zm14.482-13.603l20.383-2.684-10.549 12.17-9.834-9.486zm12.516 10.023l10.37-12.886 10.012 10.023-20.382 2.863zm14.482-13.423l19.668-2.506-10.192 11.813-9.476-9.307zm11.979 9.665l9.834-12.171 9.476 9.486-19.31 2.685zm22.35-3.938l-9.298-8.949 18.953-2.506-9.655 11.455zm-10.192-12.171l7.867-26.31 12.337 23.805-20.204 2.505zm22.171-7.517l-11.622-21.478 19.131-1.968-7.509 23.446zm10.191-26.847l-21.813 2.148 13.231-27.384 8.582 25.236zm-10.37-29.532l-19.131 1.432 10.191-11.813 8.94 10.381zM171.299 97.327v3.758l123.189 2.148v-4.654l-123.189-1.252z"/><path d="M294.488 98.58v4.295l619.88-18.972V81.22l-619.88 17.36zm-114.428 3.4v36.87l114.428 4.296v-39.913"/><path d="M294.488 143.146l617.377-35.617V83.903M665.486 217.781l3.04.358v-92.891h-3.04v85.195m3.04 7.696l104.773-14.856v-84.3l-104.773 6.265m-182.549 14.497v104.883l-67.405 9.307-1.967-.358V144.399m2.324 0v109.536M171.299 97.327L768.65 81.219h145.718"/><path d="M773.299 118.983v117.591l17.7 1.074V118.983h-17.7zm17.701.001l82.781-4.833v105.957l-17.7 3.401v-26.311l-45.235 7.339v28.994L791 237.648"/><path d="M856.081 223.508l-14.125-.358v-23.267m0 23.267l-31.11 5.37m74.199-116.696v106.494l40.944-7.517V109.498l-40.944 2.326zm0 0l-17.343.716v1.969m17.343 103.988l-11.264-.358m14.84-109.179V95.358l-109.779 5.19v14.498m0-14.497h-5.007v14.855M381.382 295.28L159.32 326.96l-48.453-6.981V297.07l-11.443-2.327"/><path d="M110.867 297.07l31.646-4.475v22.91l-31.646 4.474m31.646-4.474l156.088-20.762v-10.381l-156.088 19.867"/><path d="M125.528 259.125v6.802l148.22 21.835m-148.22-21.835l-50.364 7.309m290.127 60.704v-12.35l-60.611 10.023v13.066m-9.298 19.688l-14.124-3.043V321.59m0 39.734l-25.926 5.011"/><path d="M304.68 344.679v18.256l-9.298 1.431v-45.282l-40.05 5.907v47.251l-96.012 19.687"/><path d="M159.32 326.96v64.612l-8.94-1.79v-37.049l-32.719-5.191v33.828l-18.237-4.475v-87.879l4.827-.537v-11.634l-55.783-6.801 77.06-11.097 173.073 25.415v6.443l30.216-4.116 52.565 8.591v35.975"/><path d="M238.705 359.355v-17.719l-58.824 8.77v19.151l58.824-10.202zM117.661 381.37l4.47-1.79v-31.322m0 31.322l28.249 6.622m-7.867-93.607l-38.262-6.264m277.131 17.898l27.713-4.654v-38.302l69.194-9.128 24.137 1.79-16.449 37.049-3.218.716 15.912-35.259-58.287 9.844-15.912 35.617-3.04.716-12.337-3.043"/><path d="M421.432 302.618l17.164-38.302 63.83-10.381m-63.83 10.381l-29.501-3.043"/><path d="M482.759 291.7l-10.728-1.611-45.95 8.055m45.95-8.055v-28.995m183.622-3.937l13.23 2.327 2.325-.716 11.264-32.575 43.625-7.517-11.979 32.753 2.503-.536 12.337-34.365-22.17-2.327-51.135 7.518v35.617l-167.888 29.711"/><path d="M668.883 259.484l12.158-35.081 47.917-7.875"/><path d="M714.118 251.429l-8.046-1.789-34.328 6.264m34.329-6.264v-27.205m-25.032 1.968l-25.389-2.684m270.337-11.097l1.431-.358 7.509-21.657 29.322-3.937-8.045 20.404 1.609-.358 8.403-21.478-14.84-2.148-25.389 2.864"/><path d="M925.989 210.622l8.046-23.268 32.183-4.116"/><path d="M956.205 205.074l-5.363-.895-22.707 3.937m22.706-3.937v-17.54m-16.806.715l-8.046-1.074m-152.69 50.294l-54.89 9.665m-829.247 118.485l-171.642-34.006s59.002-45.819 113.892-62.107c55.426-16.466 91.542-13.244 91.542-13.244l133.023 15.571"/><path d="M-282.48 330.897l10.727 47.609 170.391 40.45-9.476-54.232s61.684-51.188 129.626-73.382c44.34-14.497 85.642-14.497 85.642-14.497M94.954 377.79l4.649-1.074M-.7 397.657l12.336-2.685"/><path d="M16.463 396.404l78.491-16.645v-72.308l-78.848 12.707v76.246l-4.47-1.432v-75.888l78.848-12.707 4.47 1.074m239.405-206.187v39.197m35.759-40.271v38.302M304.68 344.679v78.572l149.65 34.544 230.466-62.286v-71.413L540.33 303.513l-235.65 41.166zM405.341 99.475v37.049M438.06 98.4v36.334m31.468-37.049v35.259m29.501-36.334v34.365m28.249-35.796v34.722M555.528 95v33.111m14.303-34.185v33.112m25.389-33.291v32.038m24.495-32.754v31.322m23.601-32.038v30.606m22.885-31.143v29.89m21.456-30.785v29.532m21.098-30.068v28.995m19.309-29.532v28.458m19.846-29.532v28.279m18.952-28.637v27.384m17.88-27.742v11.992m16.985-12.529v11.813m17.165-12.35v11.992m15.733-12.529v11.634m15.734-11.992v11.276m15.019-11.634v10.739m15.376-11.455v10.918m16.45-11.455v23.626m-637.402-5.728v39.197m-31.468-39.555v38.481m-26.103-38.839v37.944m96.37 154.64l30.216-4.117 41.838 6.623m588.054-93.786l18.773-3.58v-26.847"/><path d="M318.804 347.184l221.884-39.196 128.91 18.972m-536.74-95.218v11.991m0-40.091v24.52m0-66.044v24.52m0-42.06v13.244m856.067-48.861l-62.936 2.863v2.148l4.828-.179-4.828 6.443v4.654l10.37-.537-6.973 17.182-3.397-14.855v9.128l1.788 8.233-1.788.179v2.685l1.788-.179v.179l-1.967 6.98v5.906l2.682-10.739 6.079 16.109-8.761.895v2.326l8.582-.895-5.185 8.055-3.397-5.37v3.401l1.609 2.506-1.609.179v2.505l61.684-7.696v-1.969l-8.939 1.074 4.648-7.875 4.291 6.443v-2.863l-2.682-3.759 2.861-.358v-1.969l-3.397.358v-.179l3.933-18.435v-1.969l.179-6.085-2.145-11.992 2.503-.179v-1.968l-2.324.179 2.324-4.117v-2.148l-3.576 5.728-3.933-7.16 7.509-.358.179-2.505zm-9.476 2.326l-5.185 8.055-4.292-7.518 9.477-.537zm-14.483 29.711l-9.655.716 6.795-18.256 2.86 17.54zm-1.43-18.435l9.476-.537-6.615 16.467-2.861-15.93zm-8.94 16.645l-2.86-15.929 9.297-.537-6.437 16.466zm-1.43 2.685l-10.013.716 7.152-17.54 2.861 16.824zm-10.907-1.611l-3.218-16.287 10.549-.537-7.331 16.824zm5.364 23.268l-10.37 1.074 4.291-17.54 6.079 16.466zm-4.47-18.435l9.834-.895-4.112 16.287-5.722-15.392zm10.728 1.074l5.721 16.287-9.654.895 3.933-17.182zm1.43-1.969l9.476-.895-4.112 16.108-5.364-15.213zm10.37 1.074l5.543 15.929-9.476.895 3.933-16.824zm1.252-2.148l9.297-.895-3.933 16.287-5.364-15.392zm0-2.327l6.794-17.54 3.04 16.824-9.834.716zm8.046-18.972l8.761-.537-5.901 16.109-2.86-15.572zm-2.146-2.147l-9.118.536 5.006-8.054 4.112 7.518zm-5.185-7.876l-5.185 8.055-4.291-7.518 9.476-.537zm-6.436 8.591l-9.298.537 5.185-8.054 4.113 7.517zm-5.185-8.054l-5.364 8.054-4.291-7.517 9.655-.537zm-6.795 8.591l-10.012.537 5.542-8.412 4.47 7.875zm-5.721-7.875l-5.722 8.233-4.648-7.696 10.37-.537zm-17.343 9.128l5.721-8.054 4.291 7.517-10.012.537zm11.264 3.043l3.397 17.719-10.37.716 6.973-18.435zm-7.331 20.941l10.549-.895-4.47 16.824-6.079-15.929zm.894 29.353l5.007-8.412h.178l4.47 7.338-9.655 1.074zm6.973-8.412l9.476-1.074-5.006 7.875-4.47-6.801zm5.901 6.98l4.827-8.054 4.291 6.98-9.118 1.074zm6.615-8.412l9.118-.895-4.827 7.696-4.291-6.801zm5.543 6.98l4.827-8.054 4.291 6.98-9.118 1.074zm6.436-8.233l8.761-.895-4.649 7.338-4.112-6.443zm5.364 6.801l4.47-7.696 4.112 6.622-8.582 1.074zm9.834-1.79l-3.934-6.264 8.582-.895-4.648 7.159zm-4.291-8.412l3.933-17.182 5.185 16.287-9.118.895zm10.012-4.116l-4.827-14.677 8.582-.716-3.755 15.393zm4.827-17.72l-9.654.716 6.257-17.898 3.397 17.182zm-4.112-20.045l-8.582.537 4.649-7.518 3.933 6.981z"/><path d="M987.673 171.067l1.252-62.106-38.441-1.432"/><path d="M950.484 110.392V94.105l-27.713 1.253v14.319l-2.682.179V95.179l26.998-.895m-26.998 11.992l-8.225-.179"/><path d="M816.209 314.968v-33.291l95.655-22.193-85.463-6.623-97.443 19.867v33.649l87.251 8.591z" stroke-linejoin="round"/><path d="M816.209 281.677l-87.251-8.949m182.907-13.245v29.353l-95.655 26.131-88.146 22.194-43.268-5.906"/><path d="M822.467 313.178v-23.626l83.14-20.583v21.657m-105.131 22.731v-24.878l-61.863-5.907v24.7"/><path d="M1175.41 261.99l-93.69-9.129 70.98-20.582-207.937-15.751-514.57 98.44 21.098 4.116"/><path d="M1040.42 265.211l-139.104 37.407 31.825 10.56 95.659 8.233 116.57-44.208-104.95-11.992zm-56.323 71.95l-35.937-10.918-53.996-6.801h-38.083l-97.264 22.373 124.44 20.046h36.832l64.008-24.7zm-110.316 43.493l-9.654-11.455-120.329-22.552-29.68 8.949 13.768 11.992 126.049 21.12 19.846-8.054z"/><path d="M713.045 291.521l16.271 2.685m-36.653 2.685l28.786 4.653m-48.99-.716l28.071 4.654m-50.241 0l26.819 4.295m-48.275-.179l25.747 4.296" opacity=".3"/><path d="M312.547 424.862V363.83l141.783 25.236 140.175-30.427v60.317m7.688-48.504v30.963l18.773-5.19v-29.89l-18.773 4.117zm28.607-6.623v29.89l18.774-5.19v-28.995l-18.774 4.295zm26.819-5.727v28.995l18.774-5.011v-28.279l-18.774 4.295zM454.33 371.884v85.91"/><path d="M304.858 344.679l149.472 27.205 230.466-47.788"/><path d="M1040.42 232.994l16.63 1.253m-1.97-4.653l16.63 1.432m-49.17 4.832l17.34 1.611m-36.29 1.611l17.88 1.79m-38.267 1.968l18.417 1.969m-38.799 1.79l18.952 1.969m-39.513 1.611l19.667 2.326m-40.05 1.432l20.204 2.506m52.744-28.637l15.735 1.253m1.61-3.401l15.73 1.074m-51.848 4.475l16.449 1.252m-35.938 1.79l16.986 1.611m-35.938 1.611l17.343 1.79m-37.01 1.79l18.058 1.969m-37.726 1.968l18.774 2.148m-39.514 2.148l22.528 2.505m116.756 9.665l24.49 3.58m-43.267 1.432l24.677 3.4m-44.165 1.79l25.035 3.222m-42.736 2.148l25.389 3.042m-44.877 2.148l25.746 2.864m-45.235 2.506l26.104 2.684m-26.462-69.266l19.489 1.611m-36.474 1.79l20.561 1.611m-38.441 1.969l21.456 1.79m28.428-11.455l19.846 1.432m161.986 15.213l19.49 1.432m-37.37 3.759l19.49 1.611m-37.37 3.758l18.42 1.79m-36.3 3.58l17.88 1.61" opacity=".3"/></g></g><defs><linearGradient id="paint0_linear_1201_6080" x1="-11.708" y1="260.91" x2="1191.32" y2="233.704" gradientUnits="userSpaceOnUse"><stop/><stop offset="1" stop-opacity=".03"/></linearGradient></defs></svg>