<svg width="36" height="36" fill="none" xmlns="http://www.w3.org/2000/svg"><path fill-rule="evenodd" clip-rule="evenodd" d="M27.41 9.34a3.003 3.003 0 012.092 2.146c.494 1.894.494 5.846.494 5.846s0 3.951-.494 5.845a3.003 3.003 0 01-2.092 2.148c-1.844.507-9.24.507-9.24.507s-7.397 0-9.242-.507a3.003 3.003 0 01-2.09-2.148c-.495-1.894-.495-5.845-.495-5.845s0-3.952.494-5.846A3.003 3.003 0 018.928 9.34c1.845-.507 9.241-.507 9.241-.507s7.397 0 9.241.507zm-11.458 4.666v7.391l5.913-3.695-5.913-3.696z" fill="#000"/></svg>