<svg width="470" height="189" viewBox="0 0 470 189" fill="none" xmlns="http://www.w3.org/2000/svg">
<path d="M145.891 138.082H108.187V188.011H100.001V138.082H0.283203V132.15L96.2804 14.9887H105.955L11.1976 130.667H100.001V86.6695H108.187V130.667H145.891V138.082Z" fill="#393939"/>
<path d="M231.083 189C218.018 189 206.36 185.457 196.107 178.371C186.019 171.121 178.164 160.904 172.542 147.722C166.919 134.374 164.108 118.967 164.108 101.5C164.108 84.033 166.919 68.7081 172.542 55.5254C178.164 42.178 186.019 31.9614 196.107 24.8757C206.36 17.6252 218.018 14 231.083 14C244.312 14 255.971 17.6252 266.058 24.8757C276.146 31.9614 284.001 42.178 289.624 55.5254C295.246 68.7081 298.058 84.033 298.058 101.5C298.058 118.967 295.246 134.374 289.624 147.722C284.001 160.904 276.146 171.121 266.058 178.371C255.971 185.457 244.312 189 231.083 189ZM231.083 181.338C242.659 181.338 252.912 178.124 261.842 171.698C270.771 165.271 277.634 156.043 282.43 144.014C287.391 131.985 289.872 117.814 289.872 101.5C289.872 85.1864 287.391 71.0151 282.43 58.9859C277.634 46.9567 270.771 37.7288 261.842 31.3023C252.912 24.8757 242.659 21.6624 231.083 21.6624C219.507 21.6624 209.254 24.8757 200.324 31.3023C191.559 37.7288 184.696 46.9567 179.735 58.9859C174.94 71.0151 172.542 85.1864 172.542 101.5C172.542 117.814 174.94 131.985 179.735 144.014C184.696 156.043 191.559 165.271 200.324 171.698C209.254 178.124 219.507 181.338 231.083 181.338Z" fill="#393939"/>
<path d="M469.283 138.082H431.579V188.011H423.393V138.082H323.675V132.15L419.672 14.9887H429.346L334.589 130.667H423.393V86.6695H431.579V130.667H469.283V138.082Z" fill="#393939"/>
<g clip-path="url(#clip0_1367_13385)">
<path d="M248.583 89.5001C245.383 85.7001 248.283 80.2001 244.683 76.3001C245.183 82.7001 243.483 88.7001 242.583 95.3001C248.983 96.1001 255.483 95.1001 262.283 95.8001C260.083 101.9 259.383 109.1 258.583 115C254.983 117.2 246.483 117.1 242.283 114.6C241.783 111.9 241.183 109.1 240.383 105.5C238.083 111.8 237.883 117.6 238.483 123.3C239.583 134.5 234.983 147 234.083 158C235.483 159.7 236.083 162.7 235.683 165.3C229.683 165.3 224.283 165.4 218.983 165.3C218.283 164.1 218.083 163.4 218.483 162.8C222.483 155.6 221.283 152.8 219.883 148.1C217.583 140.7 216.483 133.2 217.183 125.4C217.783 118.1 216.483 110.9 214.883 103.8C213.383 96.7001 211.883 89.6001 210.483 82.5001C210.083 80.4001 210.183 78.3001 210.583 76.1001C206.983 79.4001 207.083 84.4001 204.983 88.1001C204.683 89.4001 206.583 89.8001 205.783 91.4001C205.283 92.3001 204.683 93.9001 204.683 93.9001L210.783 152.3C210.783 152.3 214.083 158.7 216.883 161.4C217.583 162.8 216.083 163.8 216.383 165.1C217.483 166.9 218.583 168.7 219.883 170.7C219.383 173 218.483 175.2 216.883 177.4C214.083 176.8 211.883 174.6 208.983 174.6C206.283 174.6 203.983 171.9 200.883 173.3C199.883 172.5 198.883 171.6 198.083 170.8C196.783 170.5 195.983 172.2 195.183 171.6C193.483 170.8 194.483 169.9 193.983 168.9C193.083 167.9 191.783 170.2 190.683 168.9C189.683 167.8 190.383 166.8 190.983 165.4C196.583 164.9 200.383 160.1 206.183 158.9C206.583 157.1 206.383 154.7 208.983 154.7C206.383 133.6 204.883 112.9 202.183 92.9001C200.583 92.0001 200.783 93.5001 199.583 93.1001C196.483 89.0001 200.283 85.5001 201.283 82.2001C200.283 72.6001 199.383 63.5001 198.383 54.0001C201.183 54.6001 200.783 54.8001 200.783 54.8001L203.083 79.2001C203.083 79.2001 205.083 74.5001 204.783 72.9001C203.783 68.3001 204.383 63.9001 205.583 59.7001C207.683 52.7001 208.783 45.6001 210.183 38.5001C211.283 32.8001 212.783 28.4001 218.283 25.7001C218.683 25.5001 220.383 25.1001 220.883 24.7001C219.083 19.0001 218.583 12.8001 221.583 7.50008C221.783 7.20008 221.883 6.90008 221.983 6.60008C223.783 0.100079 223.983 7.90618e-05 230.583 0.100079C230.883 0.100079 231.183 0.200079 231.783 0.300079C233.883 1.70008 235.183 3.80008 235.683 6.60008C236.183 9.40008 238.383 11.5001 238.883 14.3001C239.183 15.8001 239.683 17.3001 239.183 18.7001C237.783 22.5001 239.383 25.3001 242.183 27.2001C245.183 29.2001 246.383 32.1001 247.183 35.3001C249.683 44.7001 251.083 54.3001 252.183 64.0001C252.483 66.3001 253.183 68.5001 253.083 70.9001C252.983 72.2001 253.283 73.6001 252.483 74.8001C250.583 77.8001 250.783 80.7001 252.383 83.7001C253.583 85.9001 253.183 87.9001 251.283 89.5001C250.683 89.9001 249.783 89.9001 248.583 89.5001ZM227.783 140.7C227.783 133.3 230.483 125.9 227.783 118C226.283 125.8 227.883 133.3 227.783 140.7Z" fill="#393939"/>
<path d="M239.684 94.1C242.084 89.8 246.584 87.2 250.984 87.6C255.384 88 259.584 91.4 261.284 96.1" stroke="#393939" stroke-miterlimit="10"/>
<path d="M223.983 10.5C223.483 10.7 222.883 11 222.683 11.5C222.483 12 222.683 12.5 222.783 13C222.983 14.3 223.283 15.9 223.183 17.2C223.083 18.4 225.083 20.6 226.083 21.1C224.983 20.6 225.183 19.6 225.483 18.6C225.983 16.9 226.283 16.5 225.283 16.3C225.183 16.3 226.083 13.8 226.083 13.6C226.183 13.2 226.383 12.5 226.283 12.1C226.083 11.4 225.483 12.1 225.183 12.3C224.683 12.7 224.183 12.8 223.783 12.2C223.783 12.1 223.283 11.5 223.283 11.5C223.483 11.3 223.883 10.5 223.983 10.5Z" fill="#CEDCE9"/>
</g>
<defs>
<clipPath id="clip0_1367_13385">
<rect width="72.1" height="177.2" fill="white" transform="translate(190.283)"/>
</clipPath>
</defs>
</svg>
