<svg width="33" height="32" viewBox="0 0 33 32" fill="none" xmlns="http://www.w3.org/2000/svg">
<g clip-path="url(#clip0_1349_11611)">
<path d="M9.0032 6.66667C9.0832 7.85333 9.2832 9.01333 9.6032 10.12L8.0032 11.72C7.45654 10.12 7.10987 8.42667 6.98987 6.66667H9.0032V6.66667ZM22.1499 22.6933C23.2832 23.0133 24.4432 23.2133 25.6165 23.2933V25.28C23.8565 25.16 22.1632 24.8133 20.5499 24.28L22.1499 22.6933V22.6933ZM10.2832 4H5.61654C4.8832 4 4.2832 4.6 4.2832 5.33333C4.2832 17.8533 14.4299 28 26.9499 28C27.6832 28 28.2832 27.4 28.2832 26.6667V22.0133C28.2832 21.28 27.6832 20.68 26.9499 20.68C25.2965 20.68 23.6832 20.4133 22.1899 19.92C22.0565 19.8667 21.9099 19.8533 21.7765 19.8533C21.4299 19.8533 21.0965 19.9867 20.8299 20.24L17.8965 23.1733C14.1232 21.24 11.0299 18.16 9.10987 14.3867L12.0432 11.4533C12.4165 11.08 12.5232 10.56 12.3765 10.0933C11.8832 8.6 11.6165 7 11.6165 5.33333C11.6165 4.6 11.0165 4 10.2832 4Z" fill="#393939"/>
</g>
<defs>
<clipPath id="clip0_1349_11611">
<rect width="32" height="32" fill="white" transform="translate(0.283203)"/>
</clipPath>
</defs>
</svg>
