<svg width="25" height="25" viewBox="0 0 25 25" fill="none" xmlns="http://www.w3.org/2000/svg">
<path fill-rule="evenodd" clip-rule="evenodd" d="M11.3088 2.23901H13.4202C15.2568 2.239 16.7114 2.23899 17.8499 2.39205C19.0215 2.54957 19.9698 2.88146 20.7177 3.62932C21.4655 4.37718 21.7974 5.32549 21.9549 6.49712C22.108 7.63557 22.108 9.09022 22.108 10.9267V15.0368C22.108 16.8733 22.108 18.328 21.9549 19.4664C21.7974 20.6381 21.4655 21.5864 20.7177 22.3342C19.9698 23.0821 19.0215 23.414 17.8499 23.5715C16.7114 23.7246 15.2568 23.7245 13.4202 23.7245H11.3088C9.4723 23.7245 8.01765 23.7246 6.8792 23.5715C5.70757 23.414 4.75926 23.0821 4.0114 22.3342C3.26354 21.5864 2.93165 20.6381 2.77413 19.4664C2.62107 18.328 2.62108 16.8733 2.62109 15.0368V10.9267C2.62108 9.09022 2.62107 7.63557 2.77413 6.49712C2.93165 5.32549 3.26354 4.37718 4.0114 3.62932C4.75926 2.88146 5.70757 2.54957 6.8792 2.39205C8.01765 2.23899 9.4723 2.239 11.3088 2.23901ZM7.07894 3.87767C6.07353 4.01284 5.49427 4.26634 5.07135 4.68927C4.64842 5.11219 4.39492 5.69145 4.25975 6.69686C4.12168 7.72383 4.12008 9.07758 4.12008 10.9831V14.9804C4.12008 16.886 4.12168 18.2397 4.25975 19.2667C4.39492 20.2721 4.64842 20.8514 5.07135 21.2743C5.49427 21.6972 6.07353 21.9507 7.07894 22.0859C8.10591 22.224 9.45966 22.2255 11.3652 22.2255H13.3639C15.2694 22.2255 16.6231 22.224 17.6501 22.0859C18.6555 21.9507 19.2348 21.6972 19.6577 21.2743C20.0806 20.8514 20.3341 20.2721 20.4693 19.2667C20.6074 18.2397 20.609 16.886 20.609 14.9804V10.9831C20.609 9.07758 20.6074 7.72383 20.4693 6.69686C20.3341 5.69145 20.0806 5.11219 19.6577 4.68927C19.2348 4.26634 18.6555 4.01284 17.6501 3.87767C16.6231 3.7396 15.2694 3.738 13.3639 3.738H11.3652C9.45966 3.738 8.10591 3.7396 7.07894 3.87767ZM7.61773 8.98447C7.61773 8.57053 7.95329 8.23497 8.36722 8.23497H16.3618C16.7758 8.23497 17.1113 8.57053 17.1113 8.98447C17.1113 9.3984 16.7758 9.73396 16.3618 9.73396H8.36722C7.95329 9.73396 7.61773 9.3984 7.61773 8.98447ZM7.61773 12.9818C7.61773 12.5678 7.95329 12.2323 8.36722 12.2323H16.3618C16.7758 12.2323 17.1113 12.5678 17.1113 12.9818C17.1113 13.3957 16.7758 13.7313 16.3618 13.7313H8.36722C7.95329 13.7313 7.61773 13.3957 7.61773 12.9818ZM7.61773 16.9791C7.61773 16.5651 7.95329 16.2296 8.36722 16.2296H13.3639C13.7778 16.2296 14.1133 16.5651 14.1133 16.9791C14.1133 17.393 13.7778 17.7286 13.3639 17.7286H8.36722C7.95329 17.7286 7.61773 17.393 7.61773 16.9791Z" fill="#393939"/>
</svg>
