<svg width="25" height="25" viewBox="0 0 25 25" fill="none" xmlns="http://www.w3.org/2000/svg">
<path fill-rule="evenodd" clip-rule="evenodd" d="M9.41204 4.16963C9.16008 4.24945 8.91125 4.34017 8.66626 4.44164C7.54475 4.90619 6.52573 5.58708 5.66737 6.44544C4.809 7.3038 4.12811 8.32283 3.66357 9.44433C3.2949 10.3344 3.06823 11.2751 2.99036 12.2323H7.46782C7.49981 11.1371 7.60178 10.0578 7.77125 9.035C7.97905 7.78086 8.28605 6.6252 8.68129 5.63711C8.89707 5.09765 9.14086 4.60383 9.41204 4.16963ZM12.2037 2.23901C10.7929 2.23901 9.39599 2.51688 8.09262 3.05676C6.78925 3.59663 5.60498 4.38794 4.60742 5.38549C3.60986 6.38305 2.81856 7.56732 2.27868 8.8707C1.73881 10.1741 1.46094 11.571 1.46094 12.9818C1.46094 14.3925 1.73881 15.7895 2.27868 17.0928C2.81856 18.3962 3.60986 19.5805 4.60742 20.5781C5.60498 21.5756 6.78925 22.3669 8.09262 22.9068C9.39599 23.4467 10.7929 23.7245 12.2037 23.7245C13.6145 23.7245 15.0114 23.4467 16.3148 22.9068C17.6181 22.3669 18.8024 21.5756 19.8 20.5781C20.7975 19.5805 21.5888 18.3962 22.1287 17.0928C22.6686 15.7895 22.9465 14.3925 22.9465 12.9818C22.9465 11.571 22.6686 10.1741 22.1287 8.8707C21.5888 7.56733 20.7975 6.38305 19.8 5.3855C18.8024 4.38794 17.6181 3.59663 16.3148 3.05676C15.0114 2.51688 13.6145 2.23901 12.2037 2.23901ZM12.2037 3.738C11.9426 3.738 11.6053 3.86371 11.2131 4.26984C10.818 4.67897 10.4225 5.32019 10.0731 6.19382C9.72593 7.06166 9.44406 8.10929 9.25008 9.28003C9.09445 10.2193 8.99902 11.2161 8.96749 12.2323L15.4399 12.2323C15.4084 11.2161 15.3129 10.2193 15.1573 9.28003C14.9633 8.10929 14.6815 7.06166 14.3343 6.19382C13.9849 5.3202 13.5894 4.67898 13.1943 4.26984C12.8021 3.86371 12.4648 3.738 12.2037 3.738ZM16.9396 12.2323C16.9076 11.1371 16.8056 10.0578 16.6361 9.03501C16.4283 7.78086 16.1213 6.6252 15.7261 5.63711C15.5103 5.09766 15.2665 4.60383 14.9954 4.16963C15.2473 4.24945 15.4961 4.34017 15.7411 4.44164C16.8626 4.90619 17.8817 5.58708 18.74 6.44544C19.5984 7.30381 20.2793 8.32283 20.7438 9.44434C21.1125 10.3344 21.3392 11.2751 21.417 12.2323H16.9396ZM15.4399 13.7313L8.96749 13.7313C8.99902 14.7475 9.09445 15.7442 9.25008 16.6835C9.44406 17.8543 9.72593 18.9019 10.0731 19.7697C10.4225 20.6434 10.818 21.2846 11.2131 21.6937C11.6053 22.0998 11.9426 22.2255 12.2037 22.2255C12.4648 22.2255 12.8021 22.0998 13.1943 21.6937C13.5894 21.2846 13.9849 20.6434 14.3343 19.7697C14.6815 18.9019 14.9633 17.8543 15.1573 16.6835C15.3129 15.7442 15.4084 14.7475 15.4399 13.7313ZM14.9954 21.7939C15.2665 21.3597 15.5103 20.8659 15.7261 20.3264C16.1213 19.3383 16.4283 18.1827 16.6361 16.9285C16.8056 15.9057 16.9076 14.8264 16.9396 13.7313H21.417C21.3392 14.6884 21.1125 15.6292 20.7438 16.5192C20.2793 17.6407 19.5984 18.6597 18.74 19.5181C17.8817 20.3765 16.8626 21.0574 15.7411 21.5219C15.4961 21.6234 15.2473 21.7141 14.9954 21.7939ZM9.41204 21.7939C9.14086 21.3597 8.89707 20.8659 8.68129 20.3264C8.28605 19.3383 7.97905 18.1827 7.77125 16.9285C7.60178 15.9057 7.49981 14.8264 7.46782 13.7313H2.99036C3.06822 14.6884 3.2949 15.6292 3.66357 16.5192C4.12811 17.6407 4.809 18.6597 5.66736 19.5181C6.52573 20.3765 7.54475 21.0574 8.66626 21.5219C8.91125 21.6234 9.16008 21.7141 9.41204 21.7939Z" fill="#393939"/>
</svg>
