<svg width="45" height="54" viewBox="0 0 45 54" fill="none" xmlns="http://www.w3.org/2000/svg">
<g clip-path="url(#clip0_1295_8949)">
<path d="M2.00083 0C1.12677 0.09 0.401367 0.918 0.401367 1.8V43.8C0.401367 44.742 1.25164 45.6 2.18515 45.6H17.163C19.4224 50.556 24.3873 54 30.1311 54C37.9916 54 44.4014 47.532 44.4014 39.6C44.4014 32.916 39.8349 27.276 33.6987 25.668V11.4C33.6987 10.926 33.5084 10.458 33.1754 10.128L23.6679 0.528C23.3349 0.192 22.8711 0 22.4014 0H2.00083ZM3.96893 3.6H20.6176V11.4C20.6176 12.342 21.4679 13.2 22.4014 13.2H30.1311V25.2C22.2706 25.2 15.8608 31.668 15.8608 39.6C15.8608 40.416 15.9322 41.22 16.063 42H3.96893V3.6ZM24.1852 6.132L27.6219 9.6H24.1852V6.132ZM30.1311 28.8C36.0652 28.8 40.8338 33.612 40.8338 39.6C40.8338 45.588 36.0652 50.4 30.1311 50.4C24.197 50.4 19.4284 45.588 19.4284 39.6C19.4284 33.612 24.197 28.8 30.1311 28.8ZM30.1133 32.364C29.1738 32.376 28.3295 33.252 28.3473 34.2V40.65L27.8241 40.122C27.4495 39.732 26.8906 39.522 26.3554 39.576C25.6895 39.648 25.083 40.134 24.863 40.776C24.643 41.418 24.8214 42.18 25.297 42.654L28.8646 46.254C29.5246 46.92 30.7316 46.92 31.3916 46.254L34.9592 42.654C35.6846 42.006 35.7203 40.722 35.0306 40.032C34.3408 39.342 33.0684 39.384 32.4322 40.128L31.9089 40.656V34.206C31.9268 33.246 31.0587 32.358 30.1073 32.37L30.1133 32.364Z" fill="#C59887"/>
</g>
<defs>
<clipPath id="clip0_1295_8949">
<rect width="44" height="54" fill="white" transform="translate(0.401367)"/>
</clipPath>
</defs>
</svg>
