<svg width="37" height="36" viewBox="0 0 37 36" fill="none" xmlns="http://www.w3.org/2000/svg">
<path fill-rule="evenodd" clip-rule="evenodd" d="M17.4026 7.73057C17.6137 7.73024 17.8409 7.73034 18.086 7.73045L18.49 7.73057C21.7263 7.73057 22.1099 7.74219 23.3879 7.80027C24.5697 7.85431 25.2111 8.05178 25.6384 8.21768C26.204 8.43738 26.6073 8.7 27.0313 9.12424C27.4555 9.54848 27.7181 9.95251 27.9383 10.5182C28.1042 10.9449 28.302 11.5863 28.3558 12.7681C28.4138 14.0459 28.4265 14.4297 28.4265 17.6645C28.4265 20.8993 28.4138 21.2832 28.3558 22.5609C28.3017 23.7427 28.1042 24.3841 27.9383 24.8109C27.7186 25.3766 27.4555 25.7793 27.0313 26.2033C26.607 26.6276 26.2043 26.8902 25.6384 27.1099C25.2116 27.2765 24.5697 27.4735 23.3879 27.5275C22.1101 27.5856 21.7263 27.5983 18.49 27.5983C15.2534 27.5983 14.8698 27.5856 13.592 27.5275C12.4102 27.473 11.7688 27.2755 11.3413 27.1096C10.7757 26.8899 10.3716 26.6273 9.9474 26.2031C9.52316 25.7788 9.26054 25.3758 9.04034 24.8099C8.87443 24.3831 8.67671 23.7417 8.62292 22.5599C8.56484 21.2822 8.55322 20.8983 8.55322 17.6615C8.55322 14.4247 8.56484 14.0429 8.62292 12.7651C8.67696 11.5833 8.87443 10.9419 9.04034 10.5146C9.26003 9.94898 9.52316 9.54494 9.9474 9.1207C10.3716 8.69647 10.7757 8.43384 11.3413 8.21364C11.7686 8.04698 12.4102 7.85001 13.592 7.79572C14.7102 7.74522 15.1435 7.73006 17.4026 7.72754V7.73057ZM24.96 9.74289C24.157 9.74289 23.5054 10.3936 23.5054 11.1969C23.5054 11.9999 24.157 12.6514 24.96 12.6514C25.763 12.6514 26.4145 11.9999 26.4145 11.1969C26.4145 10.3939 25.763 9.74238 24.96 9.74238V9.74289ZM12.2653 17.6671C12.2653 14.2296 15.0522 11.4426 18.4897 11.4425C21.9273 11.4425 24.7136 14.2296 24.7136 17.6671C24.7136 21.1047 21.9275 23.8906 18.49 23.8906C15.0524 23.8906 12.2653 21.1047 12.2653 17.6671Z" fill="black"/>
<path d="M18.4898 13.627C20.7211 13.627 22.5302 15.4358 22.5302 17.6673C22.5302 19.8986 20.7211 21.7077 18.4898 21.7077C16.2583 21.7077 14.4495 19.8986 14.4495 17.6673C14.4495 15.4358 16.2583 13.627 18.4898 13.627V13.627Z" fill="black"/>
</svg>
