<svg width="28" height="34" viewBox="0 0 28 34" fill="none" xmlns="http://www.w3.org/2000/svg">
<path d="M14 17.0002C12.1667 17.0002 10.6667 15.5002 10.6667 13.6668C10.6667 11.8335 12.1667 10.3335 14 10.3335C15.8334 10.3335 17.3334 11.8335 17.3334 13.6668C17.3334 15.5002 15.8334 17.0002 14 17.0002ZM24 14.0002C24 7.95016 19.5834 3.66683 14 3.66683C8.41669 3.66683 4.00002 7.95016 4.00002 14.0002C4.00002 17.9002 7.25002 23.0668 14 29.2335C20.75 23.0668 24 17.9002 24 14.0002ZM14 0.333496C21 0.333496 27.3334 5.70016 27.3334 14.0002C27.3334 19.5335 22.8834 26.0835 14 33.6668C5.11669 26.0835 0.666687 19.5335 0.666687 14.0002C0.666687 5.70016 7.00002 0.333496 14 0.333496Z" fill="#C59887"/>
</svg>
