<svg width="101" height="63" viewBox="0 0 101 63" fill="none" xmlns="http://www.w3.org/2000/svg">
<g clip-path="url(#clip0_1279_8429)">
<path d="M53 43.0002C51.1667 43.0002 49.6667 41.5002 49.6667 39.6668C49.6667 37.8335 51.1667 36.3335 53 36.3335C54.8334 36.3335 56.3334 37.8335 56.3334 39.6668C56.3334 41.5002 54.8334 43.0002 53 43.0002ZM63 40.0002C63 33.9502 58.5834 29.6668 53 29.6668C47.4167 29.6668 43 33.9502 43 40.0002C43 43.9002 46.25 49.0668 53 55.2335C59.75 49.0668 63 43.9002 63 40.0002ZM53 26.3335C60 26.3335 66.3334 31.7002 66.3334 40.0002C66.3334 45.5335 61.8834 52.0835 53 59.6668C44.1167 52.0835 39.6667 45.5335 39.6667 40.0002C39.6667 31.7002 46 26.3335 53 26.3335Z" fill="#C59887"/>
</g>
<g clip-path="url(#clip1_1279_8429)">
<path d="M42.8904 2.45387H24.7723C24.0476 2.45387 23.4217 1.91521 23.4217 1.22693C23.4217 0.568579 24.0146 0 24.7723 0H42.8904V2.45387Z" fill="#393939"/>
<path d="M72.1099 0.0299252C70.1663 0.0299252 68.4204 0.927681 67.3992 2.42394L67.3663 2.45387L63.8086 8.25935C63.3144 9.06733 62.392 9.54613 61.3708 9.54613C60.3826 9.54613 59.4273 9.03741 58.9331 8.25935L55.4084 2.45387L55.3754 2.39402C54.3872 0.897756 52.6083 0 50.6977 0H50.6647C47.6341 0 45.1634 2.27431 45.1634 5.02743V8.49875C45.1634 9.06733 44.6693 9.54613 44.0104 9.54613H26.09C25.8265 9.54613 25.53 9.48628 25.3324 9.33666C24.97 9.12718 24.7723 8.76808 24.7723 8.37905C24.7723 8.0798 24.9041 7.78055 25.1347 7.57107C25.3653 7.3616 25.7606 7.21197 26.09 7.21197H41.1774V4.78803H26.09C25.0359 4.78803 23.9817 5.17706 23.2241 5.89526C22.4664 6.55362 22.0711 7.4813 22.0711 8.40898C22.0711 9.33666 22.4994 10.2643 23.2241 10.9227C23.9817 11.611 24.97 11.9701 26.0241 11.9701H44.0434C46.1517 11.9701 47.8647 10.414 47.8647 8.49875V5.05736C47.8647 3.62095 49.1164 2.45387 50.6647 2.45387C51.653 2.45387 52.5424 2.90274 53.0365 3.65087L56.5613 9.42643V9.45636C57.5496 11.0125 59.3614 12 61.3379 12C63.3144 12 65.1262 11.0424 66.1145 9.45636L69.6393 3.6808C70.1334 2.93267 71.0558 2.48379 72.0111 2.48379C73.5594 2.48379 74.8112 3.65087 74.8112 5.08728V12.0299H77.4795V5.05736C77.5783 2.30424 75.1406 0.0299252 72.1099 0.0299252Z" fill="#393939"/>
<path d="M95.5316 0.0297852H85.3855C82.3549 0.0297852 79.8842 2.27417 79.8842 5.02729V11.9999H82.5525V4.99737C82.5525 3.59088 83.8043 2.45373 85.3526 2.45373H95.5316C97.0799 2.45373 98.3317 3.59088 98.3317 4.99737V11.9699H101V4.99737C101 2.27417 98.5623 0.0297852 95.5316 0.0297852Z" fill="#393939"/>
<path d="M0 2.45373H9.22374V11.9999H11.925V2.45373H21.1817V0.0297852H0V2.45373Z" fill="#393939"/>
</g>
<defs>
<clipPath id="clip0_1279_8429">
<rect width="40" height="40" fill="white" transform="translate(33 23)"/>
</clipPath>
<clipPath id="clip1_1279_8429">
<rect width="101" height="12" fill="white"/>
</clipPath>
</defs>
</svg>
