<svg width="25" height="24" viewBox="0 0 25 24" fill="none" xmlns="http://www.w3.org/2000/svg">
<path fill-rule="evenodd" clip-rule="evenodd" d="M18.1984 3.3568C18.8424 2.86719 19.7247 2.68917 20.5852 3.06604C21.2954 3.37708 21.913 3.74924 22.3642 4.18966C22.8174 4.63206 23.1514 5.195 23.1514 5.85989V18.5764C23.1514 19.3688 22.681 20.0115 22.0874 20.492C21.4875 20.9776 20.6651 21.3817 19.7154 21.7069C17.8086 22.3597 15.2227 22.7501 12.4014 22.7501C9.58006 22.7501 6.99418 22.3597 5.08736 21.7069C4.13763 21.3817 3.31527 20.9776 2.71534 20.492C2.12174 20.0115 1.65137 19.3688 1.65137 18.5764V5.85989C1.65137 5.195 1.98536 4.63206 2.43857 4.18966C2.88976 3.74924 3.50733 3.37708 4.21754 3.06604C5.07804 2.68917 5.96035 2.86719 6.60432 3.3568C7.23822 3.83877 7.65137 4.62479 7.65137 5.50224V8.11022C9.0455 8.37843 10.6663 8.5336 12.4014 8.5336C14.1364 8.5336 15.7572 8.37843 17.1514 8.11022V5.50224C17.1514 4.62479 17.5645 3.83877 18.1984 3.3568ZM18.6514 7.75342C19.5354 7.49711 20.2526 7.19455 20.7719 6.87151C21.4941 6.42225 21.6514 6.05639 21.6514 5.85989C21.6514 5.73022 21.5901 5.53021 21.3164 5.26306C21.0407 4.99393 20.5997 4.70995 19.9834 4.44004C19.6693 4.30246 19.3601 4.35786 19.1063 4.55087C18.8424 4.75152 18.6514 5.09732 18.6514 5.50224V7.75342ZM21.6514 8.08989C21.6225 8.10859 21.5934 8.12703 21.5642 8.1452C20.6803 8.695 19.4664 9.13509 18.0666 9.45128C16.4278 9.82148 14.4814 10.0336 12.4014 10.0336C10.3213 10.0336 8.37497 9.82148 6.73611 9.45128C5.33636 9.13509 4.12241 8.695 3.23855 8.1452C3.20935 8.12703 3.18028 8.10859 3.15137 8.08989V17.8425L6.19438 14.9948L7.56637 13.8464C8.56357 13.0117 10.0576 13.0575 10.9979 13.957L14.3189 17.1339C14.5936 17.3966 15.0408 17.4374 15.3672 17.2179L15.5981 17.0627C16.7622 16.2802 18.3325 16.3683 19.3951 17.2831L21.4388 19.0426C21.6078 18.8414 21.6514 18.6833 21.6514 18.5764V8.08989ZM20.1564 19.9179L18.4164 18.4199C17.8694 17.9489 17.0426 17.8991 16.435 18.3076L16.2041 18.4628C15.2993 19.0711 14.0715 18.973 13.2821 18.2178L9.96099 15.0409C9.57554 14.6722 8.94294 14.6503 8.52914 14.9966L7.189 16.1184L3.71449 19.3698C4.12781 19.6888 4.75094 20.0062 5.57323 20.2877C7.28571 20.874 9.69983 21.2501 12.4014 21.2501C15.1029 21.2501 17.517 20.874 19.2295 20.2877C19.5736 20.1699 19.8829 20.0458 20.1564 19.9179ZM3.15137 5.85989C3.15137 6.05639 3.30862 6.42225 4.03085 6.87151C4.55016 7.19455 5.26736 7.49711 6.15137 7.75342V5.50224C6.15137 5.09732 5.96036 4.75152 5.69645 4.55087C5.4426 4.35786 5.13343 4.30246 4.81929 4.44004C4.20301 4.70995 3.76205 4.99393 3.48634 5.26306C3.21265 5.53021 3.15137 5.73022 3.15137 5.85989ZM18.4014 12.2501C17.9872 12.2501 17.6514 12.5859 17.6514 13.0001C17.6514 13.4143 17.9872 13.7501 18.4014 13.7501C18.8156 13.7501 19.1514 13.4143 19.1514 13.0001C19.1514 12.5859 18.8156 12.2501 18.4014 12.2501ZM16.1514 13.0001C16.1514 11.7574 17.1587 10.7501 18.4014 10.7501C19.644 10.7501 20.6514 11.7574 20.6514 13.0001C20.6514 14.2427 19.644 15.2501 18.4014 15.2501C17.1587 15.2501 16.1514 14.2427 16.1514 13.0001Z" fill="#393939"/>
</svg>
