<svg width="1394" height="482" viewBox="0 0 1394 482" fill="none" xmlns="http://www.w3.org/2000/svg">
<g opacity="0.6">
<mask id="mask0_1201_6080" style="mask-type:alpha" maskUnits="userSpaceOnUse" x="-69" y="0" width="1463" height="500">
<rect x="-69" y="0.558105" width="1463" height="498.547" fill="url(#paint0_linear_1201_6080)"/>
</mask>
<g mask="url(#mask0_1201_6080)">
<path d="M728.958 300.291L637.237 317.294" stroke="white" stroke-miterlimit="10"/>
<g opacity="0.3">
<path d="M454.33 310.135L474.892 314.968" stroke="white" stroke-miterlimit="10"/>
<path d="M475.607 306.019L497.062 310.851" stroke="white" stroke-miterlimit="10"/>
<path d="M497.062 301.902L519.233 306.734" stroke="white" stroke-miterlimit="10"/>
<path d="M518.339 297.964L544.621 303.155" stroke="white" stroke-miterlimit="10"/>
<path d="M539.615 293.848L565.898 299.038" stroke="white" stroke-miterlimit="10"/>
<path d="M561.07 289.731L587.174 294.743" stroke="white" stroke-miterlimit="10"/>
<path d="M582.347 285.794L608.63 290.447" stroke="white" stroke-miterlimit="10"/>
<path d="M603.802 281.677L629.906 286.152" stroke="white" stroke-miterlimit="10"/>
<path d="M625.079 277.561L651.361 281.856" stroke="white" stroke-miterlimit="10"/>
<path d="M646.534 273.444L672.638 277.561" stroke="white" stroke-miterlimit="10"/>
<path d="M667.81 269.506L693.914 273.265" stroke="white" stroke-miterlimit="10"/>
<path d="M689.266 265.39L715.37 268.97" stroke="white" stroke-miterlimit="10"/>
<path d="M710.542 261.273L736.646 264.674" stroke="white" stroke-miterlimit="10"/>
<path d="M731.998 257.157L758.101 260.378" stroke="white" stroke-miterlimit="10"/>
<path d="M753.274 253.219L779.378 256.083" stroke="white" stroke-miterlimit="10"/>
<path d="M774.729 249.103L800.833 251.787" stroke="white" stroke-miterlimit="10"/>
<path d="M796.006 244.986L822.11 247.492" stroke="white" stroke-miterlimit="10"/>
</g>
<path d="M128.925 259.305V135.271L180.06 130.975L125.528 135.092V258.947" stroke="white" stroke-miterlimit="10"/>
<path d="M290.197 152.274V283.288" stroke="white" stroke-miterlimit="10"/>
<path d="M180.06 138.85L144.838 141.535" stroke="white" stroke-miterlimit="10"/>
<path d="M132.858 248.387V259.842" stroke="white" stroke-miterlimit="10"/>
<path d="M665.486 125.248L289.84 149.052L128.925 140.64V144.399L134.468 144.757L143.407 158.717L128.925 157.822V161.581L143.407 162.476L130.177 192.366L128.925 192.187V195.945H129.64L143.765 228.341L143.586 229.057L128.925 227.088V230.847L143.05 232.815L132.501 244.27L128.925 243.733V247.492L289.661 272.37L416.605 253.219V249.819L410.705 250.713L416.605 244.807V240.333L405.877 251.071L391.574 239.259L416.605 235.858V232.815L390.68 236.216L403.374 203.999L416.605 222.792V214.917L405.877 200.42L416.605 199.346V195.945L406.771 197.019L416.605 180.195V171.962L403.732 192.724L391.216 164.445L416.605 162.476V159.075L393.004 160.865L408.201 145.294L416.605 152.99V148.157L412.85 144.936L504.214 138.85L490.089 152.095L485.977 148.336V152.632V153.169V157.285V157.106L499.208 186.638L485.977 187.891V192.187L499.565 190.755L488.48 222.077L486.156 222.256V226.551L489.732 226.193L500.817 237.29L486.334 239.259V243.554L665.844 217.423V214.38L645.998 217.065L655.831 204.715L665.844 213.843V209.548L659.586 204.178L665.844 203.463V200.42L658.156 201.315L657.977 200.957L665.844 172.857V171.783V169.814V160.865L660.301 143.146L665.844 142.788V139.745L660.659 140.103L665.844 133.839V130.617L658.156 139.387L648.858 128.827L665.844 127.754V125.248H665.486ZM327.387 200.778L313.977 170.351L347.411 167.845L327.387 200.778ZM350.451 170.172L363.503 201.136L363.324 201.315L330.605 204.715L350.451 170.172ZM324.347 205.431L293.237 208.653L310.937 173.931L324.347 205.431ZM290.197 205.61L277.682 171.425L289.661 172.141L308.971 170.709L290.197 205.61ZM287.873 208.653L258.908 205.61L274.642 173.036L287.873 208.653ZM257.836 202.926L248.717 169.456L273.391 171.067L257.836 202.926ZM255.332 205.431L231.016 202.926L245.678 170.888L255.332 205.431ZM229.944 200.062L221.362 167.666L244.068 169.098L229.944 200.062ZM227.798 202.568L205.091 200.241L218.68 168.919L227.798 202.568ZM204.019 197.556L195.794 166.055L217.249 167.487L204.019 197.556ZM201.873 199.883L180.06 197.735L193.112 167.666L201.873 199.883ZM179.345 194.513L171.478 164.445L192.039 165.876L179.345 194.513ZM177.378 197.377L156.102 195.229L168.796 166.055L177.378 197.377ZM155.029 192.903L147.162 162.655L167.723 164.087L155.029 192.903ZM167.366 232.636L147.341 229.952L146.268 227.267L153.599 200.42L167.366 232.636ZM155.744 198.809L176.306 200.957L168.617 228.878L155.744 198.809ZM177.557 203.105L191.861 236.216L170.405 233.352L169.869 231.92L177.557 203.105ZM179.881 201.315L201.694 203.641L193.291 232.457L179.881 201.315ZM202.946 205.968L217.965 238.543L217.607 239.796L194.9 236.753L194.364 235.679L202.946 205.968ZM205.27 203.999L227.262 206.326L219.037 234.426L205.27 203.999ZM229.05 207.758L245.499 243.554L221.898 240.333L220.646 237.469L229.05 207.758ZM232.089 206.684L255.869 209.19L246.929 239.438L232.089 206.684ZM257.299 211.517L273.748 247.313L248.896 243.912L248.181 242.48L257.299 211.517ZM259.981 209.548L287.515 212.412L276.073 245.344L259.981 209.548ZM290.019 212.77L307.54 247.134L289.84 249.461L277.503 247.85L290.019 212.77ZM294.488 212.233L325.062 209.011L310.401 243.375L294.488 212.233ZM327.744 212.77L348.484 241.585V241.764L312.725 246.418L327.744 212.77ZM330.426 208.474L364.039 204.894L350.451 236.932L330.426 208.474ZM366.542 208.474L385.495 236.932L353.312 241.227L352.954 240.691L366.542 208.474ZM366.542 196.303L353.848 167.308L385.673 164.803L366.542 196.303ZM355.457 163.55L371.37 148.515L384.958 161.402L355.457 163.55ZM367.973 147.62L350.987 163.192L336.326 149.768L367.973 147.62ZM346.517 164.266L315.765 166.592L332.393 150.842L346.517 164.266ZM328.638 150.305L311.116 166.234L296.098 152.453L328.638 150.305ZM290.197 152.274L306.646 167.129L289.84 168.382L278.039 167.666L290.197 152.274ZM287.158 152.811L275.179 167.308L263.557 151.558L287.158 152.811ZM270.888 167.129L248.002 165.698L259.981 151.916L270.888 167.129ZM258.014 151.2L246.393 164.266L236.023 150.126L258.014 151.2ZM243.175 165.34L221.362 163.908L232.089 149.947L243.175 165.34ZM229.765 149.768L219.395 162.834L209.025 148.694L229.765 149.768ZM216.355 163.55L195.615 162.118L205.985 148.694L216.355 163.55ZM203.661 148.336L193.649 160.865L183.815 147.262L203.661 148.336ZM190.788 161.939L170.763 160.686L180.418 147.262L190.788 161.939ZM178.272 147.083L168.975 159.433L159.499 146.01L178.272 147.083ZM166.472 160.328L147.52 159.075L156.638 146.01L166.472 160.328ZM137.328 144.936L154.493 145.831L145.732 157.822L137.328 144.936ZM144.659 164.087L152.883 194.692L132.143 192.545L144.659 164.087ZM132.859 196.482L151.99 198.451L144.838 224.582L132.859 196.482ZM135.183 244.986L145.017 234.426L154.314 247.85L135.183 244.986ZM148.056 233.889L167.366 236.574L157.175 247.492L148.056 233.889ZM159.32 248.566L168.975 238.364L177.915 251.429L159.32 248.566ZM171.299 237.111L192.039 239.975L181.133 251.787L171.299 237.111ZM183.457 252.324L194.006 241.227L203.84 255.546L183.457 252.324ZM197.046 240.691L217.965 243.554L206.879 255.367L197.046 240.691ZM209.025 256.262L219.931 244.628L230.122 259.484L209.025 256.262ZM233.698 260.021L222.971 244.091L244.962 247.134L234.056 260.021H233.698ZM237.096 260.557L247.466 248.566L257.836 263.779L237.096 260.557ZM261.411 264.316L250.326 248.029L272.676 251.071L261.411 264.316ZM264.451 264.853L275.357 252.145L286.443 268.254L264.451 264.853ZM290.019 268.791L278.755 251.966L289.661 253.398L307.183 251.071L290.019 268.791ZM295.382 267.896L311.116 251.071L327.923 263.063L295.382 267.896ZM315.407 249.998L347.054 245.702L332.929 262.168L315.407 249.998ZM337.399 261.81L350.809 245.702L366.542 257.515L337.399 261.81ZM355.278 244.628L384.779 240.691L371.37 256.441L355.278 244.628ZM401.586 252.324L375.661 256.083L388.177 240.691L401.586 252.324ZM387.998 233.531L369.046 204.357L400.871 200.957L387.998 233.531ZM400.871 197.377L369.403 200.778L388.355 167.666L400.871 197.377ZM389.071 160.149L375.125 147.262L404.089 145.294L389.071 160.149ZM644.21 129.543L633.124 141.893L623.291 130.796L644.21 129.543ZM613.278 175.541L591.465 177.689L605.769 149.231L613.278 175.541ZM609.166 147.62L630.264 146.01L616.139 171.246L609.166 147.62ZM589.677 173.752L582.526 149.589L603.445 147.978L589.677 173.752ZM586.638 178.047L564.289 180.195L579.307 152.632L586.638 178.047ZM562.322 176.436L554.097 151.737L577.698 149.947L562.322 176.436ZM558.925 180.732L535.503 183.059L550.343 154.064L558.925 180.732ZM533.179 179.479L523.881 154.243L547.84 152.274L533.179 179.479ZM529.781 183.596L505.465 185.922L520.484 157.285L529.781 183.596ZM530.139 187.712L520.484 215.275L505.644 190.397L530.139 187.712ZM532.106 191.113L546.767 215.275L523.345 218.139L532.106 191.113ZM535.145 187.175L558.746 184.669L549.628 210.98L535.145 187.175ZM560.892 187.175L575.374 211.696L552.31 214.559L560.892 187.175ZM564.289 184.133L586.28 181.806L577.877 207.221L564.289 184.133ZM588.605 184.491L602.193 208.474L580.38 211.159L588.605 184.491ZM591.644 181.269L612.921 179.121L604.696 203.999L591.644 181.269ZM614.887 181.806L628.118 205.252L606.842 207.758L614.887 181.806ZM617.748 178.405L638.488 176.257L630.621 201.136L617.748 178.405ZM617.748 175.005L632.052 147.978L639.561 173.036L617.748 175.005ZM634.912 145.473L654.758 143.862L642.064 168.561L634.912 145.473ZM629.906 142.609L609.345 144.041L620.251 131.512L629.906 142.609ZM617.748 131.154L606.484 143.683L596.65 132.586L617.748 131.154ZM603.623 144.578L582.883 146.01L593.968 133.481L603.623 144.578ZM591.465 132.944L579.844 145.652L569.653 134.376L591.465 132.944ZM576.983 146.547L554.455 148.157L566.613 134.913L576.983 146.547ZM563.574 134.734L551.237 147.799L540.33 136.345L563.574 134.734ZM547.84 148.515L525.133 150.126L537.648 137.419L547.84 148.515ZM534.966 136.703L521.736 149.768L510.114 138.313L534.966 136.703ZM507.075 139.208L518.339 150.663L494.201 152.453L507.075 139.208ZM492.413 156.748L518.696 154.601L502.605 183.238L492.413 156.748ZM501.89 193.619L517.087 218.676L492.592 221.719L501.89 193.619ZM516.014 223.15L504.75 236.395L494.023 226.014L516.014 223.15ZM508.147 236.574L519.59 222.792L520.127 222.613L530.854 233.352L508.147 236.574ZM524.775 221.898L546.409 219.034L535.324 231.92L524.775 221.898ZM538.542 232.278L549.449 218.855H549.628L560.176 229.415L538.542 232.278ZM553.919 218.139L575.374 215.454L564.289 228.341L553.919 218.139ZM567.507 228.162L578.056 215.096L588.247 225.298L567.507 228.162ZM581.989 214.559L602.372 211.875L591.823 224.045L581.989 214.559ZM594.505 224.582L604.875 211.696L614.887 221.719L594.505 224.582ZM608.987 211.159L628.655 208.653L618.463 220.466L608.987 211.159ZM620.966 220.824L630.8 208.653L640.276 218.139L620.966 220.824ZM643.316 216.886L634.018 207.937L652.971 205.431L643.316 216.886ZM633.124 204.715L640.991 178.405L653.328 202.21L633.124 204.715ZM655.295 197.198L643.673 175.72L662.804 173.752L655.295 197.198ZM665.486 170.351L643.673 172.499L656.904 145.115L665.486 170.351ZM655.116 140.819L635.985 142.251L646.176 130.438L655.116 140.819Z" stroke="white" stroke-miterlimit="10"/>
<path d="M171.299 97.3267V101.085L294.488 103.233V98.5795L171.299 97.3267Z" stroke="white" stroke-miterlimit="10"/>
<path d="M294.488 98.5797V102.875L914.368 83.9032V81.2185L294.488 98.5797Z" stroke="white" stroke-miterlimit="10"/>
<path d="M180.06 101.98V138.85L294.488 143.146V103.233" stroke="white" stroke-miterlimit="10"/>
<path d="M294.488 143.146L911.865 107.529V83.9031" stroke="white" stroke-miterlimit="10"/>
<path d="M665.486 217.781L668.526 218.139V125.248H665.486V210.443" stroke="white" stroke-miterlimit="10"/>
<path d="M668.526 218.139L773.299 203.283V118.983L668.526 125.248" stroke="white" stroke-miterlimit="10"/>
<path d="M485.977 139.745V244.628L418.572 253.935L416.605 253.577V144.399" stroke="white" stroke-miterlimit="10"/>
<path d="M418.929 144.399V253.935" stroke="white" stroke-miterlimit="10"/>
<path d="M171.299 97.3268L768.65 81.2185H914.368" stroke="white" stroke-miterlimit="10"/>
<path d="M773.299 118.983V236.574L790.999 237.648V118.983H773.299Z" stroke="white" stroke-miterlimit="10"/>
<path d="M791 118.984L873.781 114.151V220.108L856.081 223.509V197.198L810.846 204.537V233.531L791 237.648" stroke="white" stroke-miterlimit="10"/>
<path d="M856.081 223.508L841.956 223.15V199.883" stroke="white" stroke-miterlimit="10"/>
<path d="M841.956 223.15L810.846 228.52" stroke="white" stroke-miterlimit="10"/>
<path d="M885.045 111.824V218.318L925.989 210.801V109.498L885.045 111.824ZM885.045 111.824L867.702 112.54V114.509" stroke="white" stroke-miterlimit="10"/>
<path d="M885.045 218.497L873.781 218.139" stroke="white" stroke-miterlimit="10"/>
<path d="M888.621 108.96V95.3579L778.842 100.548V115.046" stroke="white" stroke-miterlimit="10"/>
<path d="M778.842 100.549H773.835V115.404" stroke="white" stroke-miterlimit="10"/>
<path d="M381.382 295.28L159.32 326.96L110.867 319.979V297.07L99.424 294.743" stroke="white" stroke-miterlimit="10"/>
<path d="M110.867 297.07L142.513 292.595V315.505L110.867 319.979" stroke="white" stroke-miterlimit="10"/>
<path d="M142.513 315.505L298.601 294.743V284.362L142.513 304.229" stroke="white" stroke-miterlimit="10"/>
<path d="M125.528 259.125V265.927L273.748 287.762" stroke="white" stroke-miterlimit="10"/>
<path d="M125.528 265.927L75.1636 273.236" stroke="white" stroke-miterlimit="10"/>
<path d="M365.291 333.94V321.59L304.68 331.613V344.679" stroke="white" stroke-miterlimit="10"/>
<path d="M295.382 364.367L281.258 361.324V321.59" stroke="white" stroke-miterlimit="10"/>
<path d="M281.258 361.324L255.332 366.335" stroke="white" stroke-miterlimit="10"/>
<path d="M304.68 344.679V362.935L295.382 364.366V319.084L255.332 324.991V372.242L159.32 391.929" stroke="white" stroke-miterlimit="10"/>
<path d="M159.32 326.96V391.572L150.38 389.782V352.733L117.661 347.542V381.37L99.424 376.895V289.016L104.251 288.479V276.845L48.4677 270.044L125.528 258.947L298.601 284.362V290.805L328.817 286.689L381.382 295.28V331.255" stroke="white" stroke-miterlimit="10"/>
<path d="M238.705 359.355V341.636L179.881 350.406V369.557L238.705 359.355Z" stroke="white" stroke-miterlimit="10"/>
<path d="M117.661 381.37L122.131 379.58V348.258" stroke="white" stroke-miterlimit="10"/>
<path d="M122.131 379.58L150.38 386.202" stroke="white" stroke-miterlimit="10"/>
<path d="M142.513 292.595L104.251 286.331" stroke="white" stroke-miterlimit="10"/>
<path d="M381.382 304.229L409.095 299.575V261.273L478.289 252.145L502.426 253.935L485.977 290.984L482.759 291.7L498.671 256.441L440.384 266.285L424.472 301.902L421.432 302.618L409.095 299.575" stroke="white" stroke-miterlimit="10"/>
<path d="M421.432 302.618L438.596 264.316L502.426 253.935" stroke="white" stroke-miterlimit="10"/>
<path d="M438.596 264.316L409.095 261.273" stroke="white" stroke-miterlimit="10"/>
<path d="M482.759 291.7L472.031 290.089L426.081 298.144" stroke="white" stroke-miterlimit="10"/>
<path d="M472.031 290.089V261.094" stroke="white" stroke-miterlimit="10"/>
<path d="M655.653 257.157L668.883 259.484L671.208 258.768L682.472 226.193L726.097 218.676L714.118 251.429L716.621 250.893L728.958 216.528L706.788 214.201L655.653 221.719V257.336L487.765 287.047" stroke="white" stroke-miterlimit="10"/>
<path d="M668.883 259.484L681.041 224.403L728.958 216.528" stroke="white" stroke-miterlimit="10"/>
<path d="M714.118 251.429L706.072 249.64L671.744 255.904" stroke="white" stroke-miterlimit="10"/>
<path d="M706.073 249.64V222.435" stroke="white" stroke-miterlimit="10"/>
<path d="M681.041 224.403L655.652 221.719" stroke="white" stroke-miterlimit="10"/>
<path d="M925.989 210.622L927.42 210.264L934.929 188.607L964.251 184.67L956.206 205.074L957.815 204.716L966.218 183.238L951.378 181.09L925.989 183.954" stroke="white" stroke-miterlimit="10"/>
<path d="M925.989 210.622L934.035 187.354L966.218 183.238" stroke="white" stroke-miterlimit="10"/>
<path d="M956.205 205.074L950.842 204.179L928.135 208.116" stroke="white" stroke-miterlimit="10"/>
<path d="M950.841 204.179V186.639" stroke="white" stroke-miterlimit="10"/>
<path d="M934.035 187.354L925.989 186.28" stroke="white" stroke-miterlimit="10"/>
<path d="M773.299 236.574L718.409 246.239" stroke="white" stroke-miterlimit="10"/>
<path d="M-110.838 364.724L-282.48 330.718C-282.48 330.718 -223.478 284.899 -168.588 268.611C-113.162 252.145 -77.0458 255.367 -77.0458 255.367L55.977 270.938" stroke="white" stroke-miterlimit="10"/>
<path d="M-282.48 330.897L-271.753 378.506L-101.362 418.956L-110.838 364.724C-110.838 364.724 -49.154 313.536 18.7878 291.342C63.1288 276.845 104.43 276.845 104.43 276.845" stroke="white" stroke-miterlimit="10"/>
<path d="M94.9541 377.79L99.6028 376.716" stroke="white" stroke-miterlimit="10"/>
<path d="M-0.700684 397.657L11.6361 394.972" stroke="white" stroke-miterlimit="10"/>
<path d="M16.4635 396.404L94.9541 379.759V307.451L16.1059 320.158V396.404L11.636 394.972V319.084L90.4842 306.377L94.9541 307.451" stroke="white" stroke-miterlimit="10"/>
<path d="M334.359 101.264V140.461" stroke="white" stroke-miterlimit="10"/>
<path d="M370.118 100.19V138.492" stroke="white" stroke-miterlimit="10"/>
<path d="M304.68 344.679V423.251L454.33 457.795L684.796 395.509V324.096L540.33 303.513L304.68 344.679Z" stroke="white" stroke-miterlimit="10"/>
<path d="M405.341 99.4746V136.524" stroke="white" stroke-miterlimit="10"/>
<path d="M438.06 98.4006V134.734" stroke="white" stroke-miterlimit="10"/>
<path d="M469.528 97.6848V132.944" stroke="white" stroke-miterlimit="10"/>
<path d="M499.029 96.6108V130.975" stroke="white" stroke-miterlimit="10"/>
<path d="M527.278 95.179V129.901" stroke="white" stroke-miterlimit="10"/>
<path d="M555.528 95V128.111" stroke="white" stroke-miterlimit="10"/>
<path d="M569.831 93.9263V127.038" stroke="white" stroke-miterlimit="10"/>
<path d="M595.22 93.7471V125.785" stroke="white" stroke-miterlimit="10"/>
<path d="M619.715 93.0312V124.353" stroke="white" stroke-miterlimit="10"/>
<path d="M643.316 92.3154V122.921" stroke="white" stroke-miterlimit="10"/>
<path d="M666.201 91.7783V121.668" stroke="white" stroke-miterlimit="10"/>
<path d="M687.657 90.8835V120.415" stroke="white" stroke-miterlimit="10"/>
<path d="M708.755 90.3467V119.342" stroke="white" stroke-miterlimit="10"/>
<path d="M728.064 89.8096V118.268" stroke="white" stroke-miterlimit="10"/>
<path d="M747.91 88.7356V117.015" stroke="white" stroke-miterlimit="10"/>
<path d="M766.862 88.3779V115.762" stroke="white" stroke-miterlimit="10"/>
<path d="M784.742 88.0198V100.012" stroke="white" stroke-miterlimit="10"/>
<path d="M801.727 87.4829V99.2957" stroke="white" stroke-miterlimit="10"/>
<path d="M818.892 86.946V98.9378" stroke="white" stroke-miterlimit="10"/>
<path d="M834.625 86.4089V98.0427" stroke="white" stroke-miterlimit="10"/>
<path d="M850.359 86.051V97.3268" stroke="white" stroke-miterlimit="10"/>
<path d="M865.378 85.6931V96.432" stroke="white" stroke-miterlimit="10"/>
<path d="M880.754 84.9771V95.8949" stroke="white" stroke-miterlimit="10"/>
<path d="M897.204 84.4402V108.066" stroke="white" stroke-miterlimit="10"/>
<path d="M259.802 102.338V141.535" stroke="white" stroke-miterlimit="10"/>
<path d="M228.334 101.98V140.461" stroke="white" stroke-miterlimit="10"/>
<path d="M202.231 101.622V139.566" stroke="white" stroke-miterlimit="10"/>
<path d="M298.601 294.206L328.817 290.089L370.655 296.712" stroke="white" stroke-miterlimit="10"/>
<path d="M958.709 202.926L977.482 199.346V172.499" stroke="white" stroke-miterlimit="10"/>
<path d="M318.804 347.184L540.688 307.988L669.598 326.96" stroke="white" stroke-miterlimit="10"/>
<path d="M132.858 231.742V243.733" stroke="white" stroke-miterlimit="10"/>
<path d="M132.858 203.642V228.162" stroke="white" stroke-miterlimit="10"/>
<path d="M132.858 162.118V186.638" stroke="white" stroke-miterlimit="10"/>
<path d="M132.858 144.578V157.822" stroke="white" stroke-miterlimit="10"/>
<path d="M988.925 108.961L925.989 111.824V113.972L930.817 113.793L925.989 120.236V124.89L936.359 124.353L929.386 141.535L925.989 126.68V135.808L927.777 144.041L925.989 144.22V146.905L927.777 146.726V146.905L925.81 153.885V159.791L928.492 149.052L934.571 165.161L925.81 166.056V168.382L934.392 167.487L929.207 175.542L925.81 170.172V173.573L927.419 176.079L925.81 176.258V178.763L987.494 171.067V169.098L978.555 170.172L983.203 162.297L987.494 168.74V165.877L984.812 162.118L987.673 161.76V159.791L984.276 160.149V159.97L988.209 141.535V140.819V139.566L988.388 133.481L986.243 121.489L988.746 121.31V119.342L986.422 119.521L988.746 115.404V113.256L985.17 118.984L981.237 111.824L988.746 111.466L988.925 108.961ZM979.449 111.287L974.264 119.342L969.972 111.824L979.449 111.287ZM964.966 140.998L955.311 141.714L962.106 123.458L964.966 140.998ZM963.536 122.563L973.012 122.026L966.397 138.493L963.536 122.563ZM954.596 139.208L951.736 123.279L961.033 122.742L954.596 139.208ZM953.166 141.893L943.153 142.609L950.305 125.069L953.166 141.893ZM942.259 140.282L939.041 123.995L949.59 123.458L942.259 140.282ZM947.623 163.55L937.253 164.624L941.544 147.084L947.623 163.55ZM943.153 145.115L952.987 144.22L948.875 160.507L943.153 145.115ZM953.881 146.189L959.602 162.476L949.948 163.371L953.881 146.189ZM955.311 144.22L964.787 143.325L960.675 159.433L955.311 144.22ZM965.681 145.294L971.224 161.223L961.748 162.118L965.681 145.294ZM966.933 143.146L976.23 142.251L972.297 158.538L966.933 143.146ZM966.933 140.819L973.727 123.279L976.767 140.103L966.933 140.819ZM974.979 121.847L983.74 121.31L977.839 137.419L974.979 121.847ZM972.833 119.7L963.715 120.236L968.721 112.182L972.833 119.7ZM967.648 111.824L962.463 119.879L958.172 112.361L967.648 111.824ZM961.212 120.415L951.914 120.952L957.099 112.898L961.212 120.415ZM956.027 112.361L950.663 120.415L946.372 112.898L956.027 112.361ZM949.232 120.952L939.22 121.489L944.762 113.077L949.232 120.952ZM943.511 113.077L937.789 121.31L933.141 113.614L943.511 113.077ZM926.168 122.205L931.889 114.151L936.18 121.668L926.168 122.205ZM937.432 125.248L940.829 142.967L930.459 143.683L937.432 125.248ZM930.101 146.189L940.65 145.294L936.18 162.118L930.101 146.189ZM930.995 175.542L936.002 167.13H936.18L940.65 174.468L930.995 175.542ZM937.968 167.13L947.444 166.056L942.438 173.931L937.968 167.13ZM943.869 174.11L948.696 166.056L952.987 173.036L943.869 174.11ZM950.484 165.698L959.602 164.803L954.775 172.499L950.484 165.698ZM956.027 172.678L960.854 164.624L965.145 171.604L956.027 172.678ZM962.463 164.445L971.224 163.55L966.575 170.888L962.463 164.445ZM967.827 171.246L972.297 163.55L976.409 170.172L967.827 171.246ZM977.661 169.456L973.727 163.192L982.309 162.297L977.661 169.456ZM973.37 161.044L977.303 143.862L982.488 160.149L973.37 161.044ZM983.382 156.928L978.555 142.251L987.137 141.535L983.382 156.928ZM988.209 139.208L978.555 139.924L984.812 122.026L988.209 139.208ZM984.097 119.163L975.515 119.7L980.164 112.182L984.097 119.163Z" stroke="white" stroke-miterlimit="10"/>
<path d="M987.673 171.067L988.925 108.961L950.484 107.529" stroke="white" stroke-miterlimit="10"/>
<path d="M950.484 110.392V94.1052L922.771 95.3581V109.677L920.089 109.856V95.1791L947.087 94.2842" stroke="white" stroke-miterlimit="10"/>
<path d="M920.089 106.276L911.864 106.097" stroke="white" stroke-miterlimit="10"/>
<path d="M816.209 314.968V281.677L911.864 259.484L826.401 252.861L728.958 272.728V306.377L816.209 314.968Z" stroke="white" stroke-miterlimit="10" stroke-linejoin="round"/>
<path d="M816.209 281.677L728.958 272.728" stroke="white" stroke-miterlimit="10"/>
<path d="M911.865 259.483V288.836L816.21 314.967L728.064 337.161L684.796 331.255" stroke="white" stroke-miterlimit="10"/>
<path d="M822.467 313.178V289.552L905.607 268.969V290.626" stroke="white" stroke-miterlimit="10"/>
<path d="M800.476 313.357V288.479L738.613 282.572V307.272" stroke="white" stroke-miterlimit="10"/>
<path d="M1175.41 261.99L1081.72 252.861L1152.7 232.279L944.763 216.528L430.193 314.968L451.291 319.084" stroke="white" stroke-miterlimit="10"/>
<path d="M1040.42 265.211L901.316 302.618L933.141 313.178L1028.8 321.411L1145.37 277.203L1040.42 265.211Z" stroke="white" stroke-miterlimit="10"/>
<path d="M984.097 337.161L948.16 326.243L894.164 319.442H856.081L758.817 341.815L883.257 361.861H920.089L984.097 337.161Z" stroke="white" stroke-miterlimit="10"/>
<path d="M873.781 380.654L864.127 369.199L743.798 346.647L714.118 355.596L727.886 367.588L853.935 388.708L873.781 380.654Z" stroke="white" stroke-miterlimit="10"/>
<g opacity="0.3">
<path d="M713.045 291.521L729.316 294.206" stroke="white" stroke-miterlimit="10"/>
<path d="M692.663 296.891L721.449 301.544" stroke="white" stroke-miterlimit="10"/>
<path d="M672.459 300.828L700.53 305.482" stroke="white" stroke-miterlimit="10"/>
<path d="M650.289 305.482L677.108 309.777" stroke="white" stroke-miterlimit="10"/>
<path d="M628.833 309.598L654.58 313.894" stroke="white" stroke-miterlimit="10"/>
</g>
<path d="M312.547 424.862V363.83L454.33 389.066L594.505 358.639V418.956" stroke="white" stroke-miterlimit="10"/>
<path d="M602.193 370.452V401.415L620.966 396.225V366.335L602.193 370.452Z" stroke="white" stroke-miterlimit="10"/>
<path d="M630.8 363.829V393.719L649.574 388.529V359.534L630.8 363.829Z" stroke="white" stroke-miterlimit="10"/>
<path d="M657.619 358.102V387.097L676.393 382.086V353.807L657.619 358.102Z" stroke="white" stroke-miterlimit="10"/>
<path d="M454.33 371.884V457.794" stroke="white" stroke-miterlimit="10"/>
<path d="M304.858 344.679L454.33 371.884L684.796 324.096" stroke="white" stroke-miterlimit="10"/>
<g opacity="0.3">
<path d="M1040.42 232.994L1057.05 234.247" stroke="white" stroke-miterlimit="10"/>
<path d="M1055.08 229.594L1071.71 231.026" stroke="white" stroke-miterlimit="10"/>
<path d="M1022.54 235.858L1039.88 237.469" stroke="white" stroke-miterlimit="10"/>
<path d="M1003.59 239.08L1021.47 240.87" stroke="white" stroke-miterlimit="10"/>
<path d="M983.203 242.838L1001.62 244.807" stroke="white" stroke-miterlimit="10"/>
<path d="M962.821 246.597L981.773 248.566" stroke="white" stroke-miterlimit="10"/>
<path d="M942.26 250.177L961.927 252.503" stroke="white" stroke-miterlimit="10"/>
<path d="M921.877 253.935L942.081 256.441" stroke="white" stroke-miterlimit="10"/>
</g>
<g opacity="0.3">
<path d="M994.825 227.804L1010.56 229.057" stroke="white" stroke-miterlimit="10"/>
<path d="M1012.17 225.656L1027.9 226.73" stroke="white" stroke-miterlimit="10"/>
<path d="M976.052 231.205L992.501 232.457" stroke="white" stroke-miterlimit="10"/>
<path d="M956.563 234.247L973.549 235.858" stroke="white" stroke-miterlimit="10"/>
<path d="M937.611 237.469L954.954 239.259" stroke="white" stroke-miterlimit="10"/>
<path d="M917.944 241.049L936.002 243.018" stroke="white" stroke-miterlimit="10"/>
<path d="M898.276 244.986L917.05 247.134" stroke="white" stroke-miterlimit="10"/>
<path d="M877.536 249.282L900.064 251.787" stroke="white" stroke-miterlimit="10"/>
</g>
<g opacity="0.3">
<path d="M1016.82 261.452L1041.31 265.032" stroke="white" stroke-miterlimit="10"/>
<path d="M998.043 266.464L1022.72 269.864" stroke="white" stroke-miterlimit="10"/>
<path d="M978.555 271.654L1003.59 274.876" stroke="white" stroke-miterlimit="10"/>
<path d="M960.854 277.024L986.243 280.066" stroke="white" stroke-miterlimit="10"/>
<path d="M941.366 282.214L967.112 285.078" stroke="white" stroke-miterlimit="10"/>
<path d="M921.877 287.584L947.981 290.268" stroke="white" stroke-miterlimit="10"/>
</g>
<g opacity="0.3">
<path d="M921.519 221.002L941.008 222.613" stroke="white" stroke-miterlimit="10"/>
<path d="M904.534 224.403L925.095 226.014" stroke="white" stroke-miterlimit="10"/>
<path d="M886.654 227.983L908.11 229.773" stroke="white" stroke-miterlimit="10"/>
<path d="M936.538 218.318L956.384 219.75" stroke="white" stroke-miterlimit="10"/>
</g>
<g opacity="0.3">
<path d="M1118.37 234.963L1137.86 236.395" stroke="white" stroke-miterlimit="10"/>
<path d="M1100.49 240.154L1119.98 241.765" stroke="white" stroke-miterlimit="10"/>
<path d="M1082.61 245.523L1101.03 247.313" stroke="white" stroke-miterlimit="10"/>
<path d="M1064.73 250.893L1082.61 252.503" stroke="white" stroke-miterlimit="10"/>
</g>
</g>
</g>
<defs>
<linearGradient id="paint0_linear_1201_6080" x1="-11.7077" y1="260.91" x2="1191.32" y2="233.704" gradientUnits="userSpaceOnUse">
<stop/>
<stop offset="1" stop-opacity="0.03"/>
</linearGradient>
</defs>
</svg>
