<svg width="36" height="36" viewBox="0 0 36 36" fill="none" xmlns="http://www.w3.org/2000/svg">
<path fill-rule="evenodd" clip-rule="evenodd" d="M27.4103 9.33909C28.4281 9.61836 29.2296 10.4412 29.5016 11.4862C29.9959 13.3801 29.9959 17.3318 29.9959 17.3318C29.9959 17.3318 29.9959 21.2833 29.5016 23.1774C29.2296 24.2223 28.4281 25.0452 27.4103 25.3246C25.5659 25.832 18.1695 25.832 18.1695 25.832C18.1695 25.832 10.773 25.832 8.92844 25.3246C7.91069 25.0452 7.10918 24.2223 6.83717 23.1774C6.34302 21.2833 6.34302 17.3318 6.34302 17.3318C6.34302 17.3318 6.34302 13.3801 6.83717 11.4862C7.10918 10.4412 7.91069 9.61836 8.92844 9.33909C10.773 8.83154 18.1695 8.83154 18.1695 8.83154C18.1695 8.83154 25.5659 8.83154 27.4103 9.33909ZM15.9521 14.0057V21.3972L21.8653 17.7016L15.9521 14.0057Z" fill="black"/>
</svg>
