<svg width="73" height="178" viewBox="0 0 73 178" fill="none" xmlns="http://www.w3.org/2000/svg">
<g clip-path="url(#clip0_1349_11800)">
<path d="M58.5828 89.5001C55.3828 85.7001 58.2828 80.2001 54.6828 76.3001C55.1828 82.7001 53.4828 88.7001 52.5828 95.3001C58.9828 96.1001 65.4828 95.1001 72.2828 95.8001C70.0828 101.9 69.3828 109.1 68.5828 115C64.9828 117.2 56.4828 117.1 52.2828 114.6C51.7828 111.9 51.1828 109.1 50.3828 105.5C48.0828 111.8 47.8828 117.6 48.4828 123.3C49.5828 134.5 44.9828 147 44.0828 158C45.4828 159.7 46.0828 162.7 45.6828 165.3C39.6828 165.3 34.2828 165.4 28.9828 165.3C28.2828 164.1 28.0828 163.4 28.4828 162.8C32.4828 155.6 31.2828 152.8 29.8828 148.1C27.5828 140.7 26.4828 133.2 27.1828 125.4C27.7828 118.1 26.4828 110.9 24.8828 103.8C23.3828 96.7001 21.8828 89.6001 20.4828 82.5001C20.0828 80.4001 20.1828 78.3001 20.5828 76.1001C16.9828 79.4001 17.0828 84.4001 14.9828 88.1001C14.6828 89.4001 16.5828 89.8001 15.7828 91.4001C15.2828 92.3001 14.6828 93.9001 14.6828 93.9001L20.7828 152.3C20.7828 152.3 24.0828 158.7 26.8828 161.4C27.5828 162.8 26.0828 163.8 26.3828 165.1C27.4828 166.9 28.5828 168.7 29.8828 170.7C29.3828 173 28.4828 175.2 26.8828 177.4C24.0828 176.8 21.8828 174.6 18.9828 174.6C16.2828 174.6 13.9828 171.9 10.8828 173.3C9.88277 172.5 8.88277 171.6 8.08277 170.8C6.78277 170.5 5.98277 172.2 5.18277 171.6C3.48277 170.8 4.48277 169.9 3.98277 168.9C3.08277 167.9 1.78277 170.2 0.68277 168.9C-0.31723 167.8 0.38277 166.8 0.98277 165.4C6.58277 164.9 10.3828 160.1 16.1828 158.9C16.5828 157.1 16.3828 154.7 18.9828 154.7C16.3828 133.6 14.8828 112.9 12.1828 92.9001C10.5828 92.0001 10.7828 93.5001 9.58277 93.1001C6.48277 89.0001 10.2828 85.5001 11.2828 82.2001C10.2828 72.6001 9.38277 63.5001 8.38277 54.0001C11.1828 54.6001 10.7828 54.8001 10.7828 54.8001L13.0828 79.2001C13.0828 79.2001 15.0828 74.5001 14.7828 72.9001C13.7828 68.3001 14.3828 63.9001 15.5828 59.7001C17.6828 52.7001 18.7828 45.6001 20.1828 38.5001C21.2828 32.8001 22.7828 28.4001 28.2828 25.7001C28.6828 25.5001 30.3828 25.1001 30.8828 24.7001C29.0828 19.0001 28.5828 12.8001 31.5828 7.50008C31.7828 7.20008 31.8828 6.90008 31.9828 6.60008C33.7828 0.100079 33.9828 7.90618e-05 40.5828 0.100079C40.8828 0.100079 41.1828 0.200079 41.7828 0.300079C43.8828 1.70008 45.1828 3.80008 45.6828 6.60008C46.1828 9.40008 48.3828 11.5001 48.8828 14.3001C49.1828 15.8001 49.6828 17.3001 49.1828 18.7001C47.7828 22.5001 49.3828 25.3001 52.1828 27.2001C55.1828 29.2001 56.3828 32.1001 57.1828 35.3001C59.6828 44.7001 61.0828 54.3001 62.1828 64.0001C62.4828 66.3001 63.1828 68.5001 63.0828 70.9001C62.9828 72.2001 63.2828 73.6001 62.4828 74.8001C60.5828 77.8001 60.7828 80.7001 62.3828 83.7001C63.5828 85.9001 63.1828 87.9001 61.2828 89.5001C60.6828 89.9001 59.7828 89.9001 58.5828 89.5001ZM37.7828 140.7C37.7828 133.3 40.4828 125.9 37.7828 118C36.2828 125.8 37.8828 133.3 37.7828 140.7Z" fill="#393939"/>
<path d="M49.6836 94.1C52.0836 89.8 56.5836 87.2 60.9836 87.6C65.3836 88 69.5836 91.4 71.2836 96.1" stroke="#393939" stroke-miterlimit="10"/>
<path d="M33.9832 10.5C33.4832 10.7 32.8832 11 32.6832 11.5C32.4832 12 32.6832 12.5 32.7832 13C32.9832 14.3 33.2832 15.9 33.1832 17.2C33.0832 18.4 35.0832 20.6 36.0832 21.1C34.9832 20.6 35.1832 19.6 35.4832 18.6C35.9832 16.9 36.2832 16.5 35.2832 16.3C35.1832 16.3 36.0832 13.8 36.0832 13.6C36.1832 13.2 36.3832 12.5 36.2832 12.1C36.0832 11.4 35.4832 12.1 35.1832 12.3C34.6832 12.7 34.1832 12.8 33.7832 12.2C33.7832 12.1 33.2832 11.5 33.2832 11.5C33.4832 11.3 33.8832 10.5 33.9832 10.5Z" fill="#CEDCE9"/>
</g>
<defs>
<clipPath id="clip0_1349_11800">
<rect width="72.1" height="177.2" fill="white" transform="translate(0.283203)"/>
</clipPath>
</defs>
</svg>
